<?xml version="1.0" encoding="UTF-8"?>
<svg version="1.1" xmlns="http://www.w3.org/2000/svg" width="225" height="225">
<path d="M0 0 C74.25 0 148.5 0 225 0 C225 74.25 225 148.5 225 225 C150.75 225 76.5 225 0 225 C0 150.75 0 76.5 0 0 Z " fill="#FEFEFE" transform="translate(0,0)"/>
<path d="M0 0 C0.70326416 0.00161133 1.40652832 0.00322266 2.13110352 0.00488281 C8.51224221 0.15242359 14.91551472 1.10307734 20.5 4.375 C21.31640625 6.515625 21.31640625 6.515625 21.5 8.375 C18.36758465 7.8855601 15.97570488 7.13668404 13.0625 5.8125 C6.5206858 3.31742475 -1.45338805 2.93811503 -8.07421875 5.2890625 C-12.43736523 7.78920189 -14.99273672 10.47639435 -16.5 15.375 C-17.28103991 20.78295988 -16.88535231 25.28245566 -13.80078125 29.8828125 C-8.89870277 35.50621785 -1.54167295 36.5838683 5.390625 38.25 C8.76044698 39.46923207 9.83630204 40.25409141 11.5 43.375 C11.87232795 46.41567828 12.11343093 48.41200364 10.4375 51.04296875 C7.42090741 53.11687615 4.72942657 52.69581388 1.125 52.625 C-0.18210937 52.60953125 -1.48921875 52.5940625 -2.8359375 52.578125 C-5.8526625 52.41088651 -8.57100655 52.07614901 -11.5 51.375 C-13.75885324 54.62897508 -13.75885324 54.62897508 -14.5 58.375 C-10.25692896 60.36393955 -6.12657297 61.01973087 -1.5 61.375 C-0.68917969 61.45234375 0.12164062 61.5296875 0.95703125 61.609375 C7.44059358 61.96791301 11.56509689 60.63534801 16.5 56.375 C20.00477067 52.54165708 19.82373019 48.74196449 19.80078125 43.77734375 C19.47599725 41.18328969 18.94756716 39.54877143 17.5 37.375 C16.015 36.88 16.015 36.88 14.5 36.375 C14.995 37.014375 15.49 37.65375 16 38.3125 C18.0255862 42.44807183 18.20263775 45.84777725 17.5 50.375 C15.67874078 54.30891991 14.16683012 55.95823117 10.5 58.25 C3.78412177 60.70667407 -4.06842944 60.33163775 -10.5 57.375 C-10.5 56.385 -10.5 55.395 -10.5 54.375 C-9.1078125 54.6225 -9.1078125 54.6225 -7.6875 54.875 C1.6702929 56.16030225 1.6702929 56.16030225 10.625 53.9375 C12.89713936 50.83224287 13.40984238 48.44622724 13.9453125 44.69140625 C13.2383067 41.01373574 11.39077874 39.66872902 8.5 37.375 C5.91907762 36.26189913 3.28515901 35.55756075 0.5625 34.875 C-5.33520629 33.38818329 -9.12347858 31.70474943 -13.5 27.375 C-15.16515151 22.37954547 -15.36592117 17.36661868 -13.25 12.5 C-10.35918495 8.98972458 -7.92680477 7.29793162 -3.5 6.375 C4.25389294 5.75961167 11.36467993 7.20020729 18.5 10.375 C19.5 13.375 19.5 13.375 18.0625 16.5625 C17.546875 17.490625 17.03125 18.41875 16.5 19.375 C13.22190746 18.89527914 10.17586957 18.27660326 7 17.3125 C2.42642143 16.08743431 -1.00235863 15.87578621 -5.5 17.375 C-4.93923199 19.86504504 -4.93923199 19.86504504 -3.5 22.375 C-0.92825684 23.5700483 -0.92825684 23.5700483 2.5 24.375 C13.08830331 27.6120867 13.08830331 27.6120867 16.5625 31.4375 C20.72924551 35.45364025 26.02155553 35.51577426 31.51269531 36.26196289 C40.45613323 37.52244128 48.96019115 40.24319293 56.5 45.375 C58 48.25 58 48.25 58.5 51.375 C56.69882288 56.64987585 52.1451825 58.82019967 47.5 61.375 C26.85232606 70.83085159 2.04960453 74.09358594 -20.5 74.375 C-21.29647949 74.39401367 -22.09295898 74.41302734 -22.91357422 74.43261719 C-41.81652327 74.86864664 -61.1782635 74.54600913 -79.625 70.0625 C-80.41148926 69.87405518 -81.19797852 69.68561035 -82.00830078 69.49145508 C-88.52990065 67.73825312 -94.67282756 65.11575866 -98.5 59.375 C-98.625 56.1875 -98.625 56.1875 -98.5 53.375 C-97.51 52.88 -97.51 52.88 -96.5 52.375 C-96.2525 53.9528125 -96.2525 53.9528125 -96 55.5625 C-94.77853701 59.67558964 -92.72950403 61.26958171 -89.046875 63.3125 C-78.36787815 67.76754163 -66.74394945 68.53051197 -55.328125 68.54296875 C-53.71257721 68.54796135 -53.71257721 68.54796135 -52.06439209 68.55305481 C-49.78495712 68.55810618 -47.50551478 68.56046369 -45.22607422 68.56030273 C-41.80292902 68.56246654 -38.38011855 68.58057849 -34.95703125 68.59960938 C-21.9948022 68.63250963 -9.35175354 68.06495627 3.5 66.375 C4.70068115 66.2298999 5.9013623 66.0847998 7.13842773 65.93530273 C19.58569317 64.38155678 33.47090723 61.29148295 43.5 53.375 C44.85439668 50.66620665 44.56501451 48.36566732 44.5 45.375 C37.63995342 41.1422053 30.75909093 37.73968531 22.5 38.375 C22.83 39.035 23.16 39.695 23.5 40.375 C24.31738854 47.951563 23.03563506 54.20545618 18.25 60.1875 C10.82957198 66.0901132 3.77857946 66.26885268 -5.5 65.375 C-9.98469887 64.42497033 -14.35166321 63.35323397 -18.5 61.375 C-19.5 58.375 -19.5 58.375 -18.28515625 55.45703125 C-17.71667969 54.37808594 -17.14820312 53.29914063 -16.5625 52.1875 C-15.99660156 51.10082031 -15.43070312 50.01414063 -14.84765625 48.89453125 C-14.40292969 48.06308594 -13.95820312 47.23164062 -13.5 46.375 C-7.78125 47.2421875 -7.78125 47.2421875 -5.25 48.4375 C-1.05464804 49.86773362 3.10763836 49.52851944 7.5 49.375 C7.5 47.395 7.5 45.415 7.5 43.375 C6.89414063 43.20484375 6.28828125 43.0346875 5.6640625 42.859375 C2.92985206 42.06855721 0.21394268 41.23281295 -2.5 40.375 C-3.38429688 40.0965625 -4.26859375 39.818125 -5.1796875 39.53125 C-11.17582732 37.41710951 -15.12802231 34.85446375 -18.5 29.375 C-21.01283875 24.08937366 -21.1873239 19.1366411 -20.5 13.375 C-15.98880608 4.35261216 -9.9086347 -0.02341083 0 0 Z " fill="#4B3282" transform="translate(135.5,47.625)"/>
<path d="M0 0 C2.64 0 5.28 0 8 0 C8.22961426 0.53439697 8.45922852 1.06879395 8.69580078 1.61938477 C14.73800466 15.65636598 20.94853679 29.61008201 27.26416016 43.52563477 C27.70177925 44.49056602 27.70177925 44.49056602 28.14823914 45.47499084 C28.94232431 47.22523661 29.73759855 48.97494276 30.53295898 50.72460938 C31.01708252 51.80548828 31.50120605 52.88636719 32 54 C32.28167023 54.61528564 32.56334045 55.23057129 32.85354614 55.86450195 C34.14812755 58.75724138 35 60.79324931 35 64 C29.72 64 24.44 64 19 64 C18.34 62.02 17.68 60.04 17 58 C9.08 58.33 1.16 58.66 -7 59 C-7.99 61.475 -7.99 61.475 -9 64 C-14.61 64 -20.22 64 -26 64 C-25.28523088 59.71138529 -24.84108013 57.17573935 -23.171875 53.4375 C-22.7903125 52.57237793 -22.40875 51.70725586 -22.015625 50.81591797 C-21.38914062 49.42203857 -21.38914062 49.42203857 -20.75 48 C-19.8484674 45.96115451 -18.94745376 43.92207949 -18.046875 41.8828125 C-17.31694336 40.23780762 -17.31694336 40.23780762 -16.57226562 38.55957031 C-13.97536161 32.68024414 -11.42287591 26.78174052 -8.86975098 20.88330078 C-8.01174717 18.90212483 -7.15206011 16.92168687 -6.29199219 14.94140625 C-5.75712075 13.70835099 -5.22228819 12.47527886 -4.6875 11.2421875 C-4.21699219 10.1579248 -3.74648437 9.07366211 -3.26171875 7.95654297 C-2.13576738 5.31813912 -1.05232439 2.66848221 0 0 Z " fill="#F9EBE8" transform="translate(78,46)"/>
<path d="M0 0 C11.99303739 0.6846419 25.11989274 2.61405663 35 10 C37.31858129 15.06701193 37.31858129 15.06701193 36.125 18.5625 C21.62814574 35.1912446 -11.81742939 37.08714572 -32.02416992 38.69458008 C-35.34840539 38.89297446 -38.67113908 38.95845655 -42 39 C-42.79647949 39.01901367 -43.59295898 39.03802734 -44.41357422 39.05761719 C-63.31652327 39.49364664 -82.6782635 39.17100913 -101.125 34.6875 C-101.91148926 34.49905518 -102.69797852 34.31061035 -103.50830078 34.11645508 C-110.02990065 32.36325312 -116.17282756 29.74075866 -120 24 C-120.125 20.8125 -120.125 20.8125 -120 18 C-119.34 17.67 -118.68 17.34 -118 17 C-117.835 18.051875 -117.67 19.10375 -117.5 20.1875 C-116.27853701 24.30058964 -114.22950403 25.89458171 -110.546875 27.9375 C-99.86787815 32.39254163 -88.24394945 33.15551197 -76.828125 33.16796875 C-75.21257721 33.17296135 -75.21257721 33.17296135 -73.56439209 33.17805481 C-71.28495712 33.18310618 -69.00551478 33.18546369 -66.72607422 33.18530273 C-63.30292902 33.18746654 -59.88011855 33.20557849 -56.45703125 33.22460938 C-43.4948022 33.25750963 -30.85175354 32.68995627 -18 31 C-16.79931885 30.8548999 -15.5986377 30.7097998 -14.36157227 30.56030273 C-1.91430683 29.00655678 11.97090723 25.91648295 22 18 C23.35439668 15.29120665 23.06501451 12.99066732 23 10 C15.71068204 5.50233573 8.52739131 2.90716929 0 2 C0 1.34 0 0.68 0 0 Z " fill="#DE2936" transform="translate(157,83)"/>
<path d="M0 0 C2.64 0 5.28 0 8 0 C8.22961426 0.53439697 8.45922852 1.06879395 8.69580078 1.61938477 C14.73800466 15.65636598 20.94853679 29.61008201 27.26416016 43.52563477 C27.70177925 44.49056602 27.70177925 44.49056602 28.14823914 45.47499084 C28.94232431 47.22523661 29.73759855 48.97494276 30.53295898 50.72460938 C31.01708252 51.80548828 31.50120605 52.88636719 32 54 C32.28167023 54.61528564 32.56334045 55.23057129 32.85354614 55.86450195 C34.14812755 58.75724138 35 60.79324931 35 64 C29.72 64 24.44 64 19 64 C14 53.25 14 53.25 14 51 C5.75 51 -2.5 51 -11 51 C-11.66 53.31 -12.32 55.62 -13 58 C-14.32 58 -15.64 58 -17 58 C-16.01 54.7 -15.02 51.4 -14 48 C-4.1 48 5.8 48 16 48 C17.98 51.96 19.96 55.92 22 60 C26.20075283 61.4685473 26.20075283 61.4685473 30 61 C24.31578027 47.48292202 18.59743441 33.97986024 12.80136108 20.51031494 C12.22597285 19.17131312 11.6522588 17.83159063 11.08023071 16.4911499 C10.2755352 14.60666632 9.46474556 12.72492175 8.65234375 10.84375 C8.18820068 9.76287109 7.72405762 8.68199219 7.24584961 7.56835938 C6.13067571 4.91227661 6.13067571 4.91227661 4 3 C-5.18794523 23.35078095 -5.18794523 23.35078095 -14.125 43.8125 C-14.47812256 44.63322998 -14.83124512 45.45395996 -15.19506836 46.29956055 C-17.26598808 51.15462131 -19.18073164 56.04503619 -21 61 C-17.7 61 -14.4 61 -11 61 C-10.690625 59.865625 -10.38125 58.73125 -10.0625 57.5625 C-9 54 -9 54 -8 53 C-6.58429877 52.91348389 -5.164405 52.89295096 -3.74609375 52.90234375 C-2.46508789 52.90717773 -2.46508789 52.90717773 -1.15820312 52.91210938 C-0.26037109 52.92048828 0.63746094 52.92886719 1.5625 52.9375 C2.46419922 52.94201172 3.36589844 52.94652344 4.29492188 52.95117188 C6.53001314 52.96299775 8.76497437 52.9794778 11 53 C11.495 54.98 11.495 54.98 12 57 C6.06 57.33 0.12 57.66 -6 58 C-6.99 59.98 -7.98 61.96 -9 64 C-14.61 64 -20.22 64 -26 64 C-25.28523088 59.71138529 -24.84108013 57.17573935 -23.171875 53.4375 C-22.7903125 52.57237793 -22.40875 51.70725586 -22.015625 50.81591797 C-21.38914062 49.42203857 -21.38914062 49.42203857 -20.75 48 C-19.8484674 45.96115451 -18.94745376 43.92207949 -18.046875 41.8828125 C-17.31694336 40.23780762 -17.31694336 40.23780762 -16.57226562 38.55957031 C-13.97536161 32.68024414 -11.42287591 26.78174052 -8.86975098 20.88330078 C-8.01174717 18.90212483 -7.15206011 16.92168687 -6.29199219 14.94140625 C-5.75712075 13.70835099 -5.22228819 12.47527886 -4.6875 11.2421875 C-4.21699219 10.1579248 -3.74648437 9.07366211 -3.26171875 7.95654297 C-2.13576738 5.31813912 -1.05232439 2.66848221 0 0 Z " fill="#D42C38" transform="translate(78,46)"/>
<path d="M0 0 C0.99 0 1.98 0 3 0 C3.495 8.415 3.495 8.415 4 17 C5.2375 15.515 6.475 14.03 7.75 12.5 C9.859375 9.96875 9.859375 9.96875 12 8 C13.32 8 14.64 8 16 8 C16 8.99 16 9.98 16 11 C16.804375 10.484375 17.60875 9.96875 18.4375 9.4375 C22.99671435 7.59781702 26.26344042 8.1263679 31 9 C31 9.99 31 10.98 31 12 C28.03 12 25.06 12 22 12 C22 13.32 22 14.64 22 16 C22.55429688 16.18175781 23.10859375 16.36351562 23.6796875 16.55078125 C24.40414062 16.80214844 25.12859375 17.05351562 25.875 17.3125 C26.59429687 17.55613281 27.31359375 17.79976562 28.0546875 18.05078125 C30 19 30 19 32 22 C31.9375 24.5 31.9375 24.5 31 27 C27.01635793 30.38005994 23.01142029 30.49885797 18 31 C17.505 31.495 17.505 31.495 17 32 C14.32941149 32.14115161 11.67567762 32.04247107 9 32 C9 31.01 9 30.02 9 29 C8.34 29 7.68 29 7 29 C6.67 29.66 6.34 30.32 6 31 C5.34 30.67 4.68 30.34 4 30 C4 30.66 4 31.32 4 32 C3.34 32 2.68 32 2 32 C2 31.34 2 30.68 2 30 C1.34 30 0.68 30 0 30 C0 30.66 0 31.32 0 32 C-0.66 32 -1.32 32 -2 32 C-2 31.34 -2 30.68 -2 30 C-2.515625 30.185625 -3.03125 30.37125 -3.5625 30.5625 C-8.34140817 31.42025275 -11.85499299 30.73085554 -15.9375 28.125 C-18.97420832 23.52392678 -18.75696755 19.36319562 -18 14 C-16.62747293 10.88062031 -16.020457 9.5102285 -13 8 C-11.45386986 8.08651631 -9.91090613 8.24002636 -8.375 8.4375 C-7.55773437 8.53933594 -6.74046875 8.64117187 -5.8984375 8.74609375 C-5.27195313 8.82988281 -4.64546875 8.91367188 -4 9 C-4.33 10.32 -4.66 11.64 -5 13 C-6.11375 12.814375 -7.2275 12.62875 -8.375 12.4375 C-11.82568861 11.68319343 -11.82568861 11.68319343 -14 13 C-14.05391993 14.79133978 -14.09275571 16.58313899 -14.125 18.375 C-14.14820313 19.37273437 -14.17140625 20.37046875 -14.1953125 21.3984375 C-14.27216848 24.16262173 -14.27216848 24.16262173 -12 26 C-8.9086614 26.23779528 -6.96895056 25.98965019 -4 25 C-3.34 25.66 -2.68 26.32 -2 27 C-1.17349095 20.99912756 -0.7209101 15.04917946 -0.4375 9 C-0.39431641 8.12988281 -0.35113281 7.25976562 -0.30664062 6.36328125 C-0.20175782 4.24231781 -0.10049925 2.12117567 0 0 Z " fill="#F5F3F5" transform="translate(155,128)"/>
<path d="M0 0 C7.94332542 -0.72212049 15.41148025 1.92970014 22.25 5.875 C24 8 24 8 24.625 10.9375 C23.76305148 15.16104777 22.40398283 16.34489339 19 19 C3.42325528 29.07907011 -16.9230281 30.71433867 -34.9375 31.6875 C-35.8138208 31.73616211 -36.6901416 31.78482422 -37.59301758 31.83496094 C-42.8717883 32.07062484 -47.77613712 31.80506809 -53 31 C-53 29.68 -53 28.36 -53 27 C-55.97 27 -58.94 27 -62 27 C-62.33 24.36 -62.66 21.72 -63 19 C-61 21 -61 21 -60 24 C-54.72 24.33 -49.44 24.66 -44 25 C-44.33 23.68 -44.66 22.36 -45 21 C-43.68 20.01 -42.36 19.02 -41 18 C-40.34 18.33 -39.68 18.66 -39 19 C-39.33 20.32 -39.66 21.64 -40 23 C-29.58357633 26.87587858 -18.66358189 29.52301216 -7.875 25.4375 C-3.48974327 23.14705922 -1.92702717 20.49639674 0 16 C0.88279582 13.0867738 1.13528834 10.47770503 1.125 7.4375 C1.12757813 6.67308594 1.13015625 5.90867187 1.1328125 5.12109375 C1.07907384 2.81001505 1.07907384 2.81001505 0 0 Z M-64 27 C-62 28 -62 28 -62 28 Z " fill="#FBF9F9" transform="translate(157,85)"/>
<path d="M0 0 C0.495 0.99 0.495 0.99 1 2 C3.02463255 2.65213292 3.02463255 2.65213292 5 3 C5.5534764 5.07553648 6 6.84365964 6 9 C6.061875 9.804375 6.12375 10.60875 6.1875 11.4375 C6 14 6 14 4.5 15.8125 C4.005 16.204375 3.51 16.59625 3 17 C1.5 15.6875 1.5 15.6875 0 14 C0 13.01 0 12.02 0 11 C-12.20120834 6.74369043 -12.20120834 6.74369043 -24.8125 7.75 C-28.01163604 9.57807774 -30.34475005 11.6895001 -32 15 C-32.42096884 19.12063725 -32.37662207 22.8701338 -31.0625 26.8125 C-26.75906983 31.37674412 -20.65115625 32.85931979 -14.75 34.5 C-10.74220799 35.64063132 -8.00098483 36.99901517 -5 40 C-3.22489458 43.55021083 -3.98786065 47.26088647 -5 51 C-7.75805174 54.55643514 -9.17324231 55.74178162 -13.59765625 56.3671875 C-19.07463594 56.5027936 -23.85017099 55.83105031 -29 54 C-29 54.99 -29 55.98 -29 57 C-20.92871831 58.83303833 -12.2301012 59.46112627 -5 55 C-1.68470562 51.36387068 -1.61224047 47.8726558 -1.76171875 43.16015625 C-2.0527847 40.5214764 -2.78422278 38.35556836 -4 36 C-2.125 36.25 -2.125 36.25 0 37 C2.79813285 41.39425089 2.62230297 45.96572852 2 51 C-0.46062882 56.43388865 -4.51683835 59.79728161 -10 62 C-17.8441733 63.24327583 -27.02459928 61.79028624 -34 58 C-32.87548273 55.0280615 -31.77706209 52.66559313 -30 50 C-29.35675781 50.16371094 -28.71351562 50.32742187 -28.05078125 50.49609375 C-24.07159829 51.15334676 -20.2118563 51.106353 -16.1875 51.0625 C-15.39923828 51.05798828 -14.61097656 51.05347656 -13.79882812 51.04882812 C-11.86585239 51.03711312 -9.93291607 51.01917998 -8 51 C-7.95875 49.741875 -7.9175 48.48375 -7.875 47.1875 C-7.85179687 46.47980469 -7.82859375 45.77210937 -7.8046875 45.04296875 C-7.86745538 42.68640281 -7.86745538 42.68640281 -10 40 C-12.59027531 39.07365715 -15.10320951 38.28111785 -17.75 37.5625 C-24.58664451 35.70308295 -29.970009 33.7244616 -34.375 27.8125 C-36.81808404 23.01871745 -37.00953213 18.15478789 -35.375 13.046875 C-32.94694083 8.06068206 -29.21496396 4.8353439 -24 3 C-14.05232178 1.49500071 -5.98391379 3.82143545 3 8 C2.505 6.515 2.505 6.515 2 5 C1.01 4.67 0.02 4.34 -1 4 C-0.67 2.68 -0.34 1.36 0 0 Z " fill="#EAE5EF" transform="translate(154,48)"/>
<path d="M0 0 C0.70326416 0.00161133 1.40652832 0.00322266 2.13110352 0.00488281 C8.51224221 0.15242359 14.91551472 1.10307734 20.5 4.375 C21.31640625 6.515625 21.31640625 6.515625 21.5 8.375 C18.36758465 7.8855601 15.97570488 7.13668404 13.0625 5.8125 C6.5206858 3.31742475 -1.45338805 2.93811503 -8.07421875 5.2890625 C-12.43736523 7.78920189 -14.99273672 10.47639435 -16.5 15.375 C-17.28103991 20.78295988 -16.88535231 25.28245566 -13.80078125 29.8828125 C-8.89870277 35.50621785 -1.54167295 36.5838683 5.390625 38.25 C8.76044698 39.46923207 9.83630204 40.25409141 11.5 43.375 C11.87232795 46.41567828 12.11343093 48.41200364 10.4375 51.04296875 C7.42090741 53.11687615 4.72942657 52.69581388 1.125 52.625 C-0.83566406 52.60179688 -0.83566406 52.60179688 -2.8359375 52.578125 C-5.8526625 52.41088651 -8.57100655 52.07614901 -11.5 51.375 C-13.75885324 54.62897508 -13.75885324 54.62897508 -14.5 58.375 C-10.16579301 60.40665952 -6.21403788 60.89560632 -1.5 61.375 C-4.89159701 63.63606468 -6.44058804 64.22465141 -10.5 64.375 C-13.63052401 63.28545488 -16.55882047 61.8978774 -19.5 60.375 C-17.95941767 55.35991285 -16.47068161 50.7602919 -13.5 46.375 C-10.54244799 46.78768168 -7.96334842 47.15619658 -5.25 48.4375 C-1.05464804 49.86773362 3.10763836 49.52851944 7.5 49.375 C7.5 47.395 7.5 45.415 7.5 43.375 C6.89414063 43.20484375 6.28828125 43.0346875 5.6640625 42.859375 C2.92985206 42.06855721 0.21394268 41.23281295 -2.5 40.375 C-3.38429687 40.0965625 -4.26859375 39.818125 -5.1796875 39.53125 C-11.17582732 37.41710951 -15.12802231 34.85446375 -18.5 29.375 C-21.01283875 24.08937366 -21.1873239 19.1366411 -20.5 13.375 C-15.98880608 4.35261216 -9.9086347 -0.02341083 0 0 Z " fill="#4F3886" transform="translate(135.5,47.625)"/>
<path d="M0 0 C2.9825031 2.53731262 4.17064387 5.27432728 5.671875 8.85546875 C6.16848633 10.02859619 6.66509766 11.20172363 7.17675781 12.41040039 C7.70136725 13.6693522 8.22577788 14.92838687 8.75 16.1875 C9.554581 18.09979984 10.36135049 20.01116719 11.16815186 21.92253113 C11.70067552 23.18485418 12.23229614 24.44755858 12.76300049 25.71064758 C15.37314476 31.91602694 18.11752344 38.05756971 20.890625 44.19140625 C22 47 22 47 22 50 C21.01 50 20.02 50 19 50 C14.26299407 39.71222873 9.65506526 29.38807171 5.4375 18.875 C5.09138672 18.01680664 4.74527344 17.15861328 4.38867188 16.27441406 C4.07349609 15.4800293 3.75832031 14.68564453 3.43359375 13.8671875 C3.15572021 13.16706543 2.87784668 12.46694336 2.59155273 11.74560547 C2 10 2 10 2 8 C1.34 8 0.68 8 0 8 C-0.350625 9.134375 -0.70125 10.26875 -1.0625 11.4375 C-3.60656366 19.11909026 -6.87449284 26.54159797 -10 34 C-5.05 34 -0.1 34 5 34 C4.01 32.02 3.02 30.04 2 28 C2 26.68 2 25.36 2 24 C1.34 24 0.68 24 0 24 C-0.309375 24.94875 -0.61875 25.8975 -0.9375 26.875 C-2 30 -2 30 -3 32 C-3.99 32 -4.98 32 -6 32 C-5.49487476 25.77012202 -2.67395877 20.54525767 0 15 C2.74573672 17.40952406 4.07057727 19.87159651 5.5625 23.1875 C5.97628906 24.08855469 6.39007813 24.98960938 6.81640625 25.91796875 C8.194284 29.50590784 9.06783446 33.27133786 10 37 C1.75 37 -6.5 37 -15 37 C-14.21470363 32.28822175 -13.48032749 29.36457261 -11.6015625 25.15625 C-11.12203125 24.07472656 -10.6425 22.99320313 -10.1484375 21.87890625 C-9.64570312 20.76386719 -9.14296875 19.64882812 -8.625 18.5 C-7.8825 16.82744141 -7.8825 16.82744141 -7.125 15.12109375 C-4.85236882 10.02286497 -2.52099892 4.98107293 0 0 Z " fill="#D72E3A" transform="translate(82,54)"/>
<path d="M0 0 C0.33 0 0.66 0 1 0 C1.165 1.051875 1.33 2.10375 1.5 3.1875 C2.72146299 7.30058964 4.77049597 8.89458171 8.453125 10.9375 C17.48135815 14.70387947 27.85214007 16.13309429 37.57788086 16.11352539 C39.46904884 16.11341209 39.46904884 16.11341209 41.39842224 16.11329651 C42.75389649 16.1081915 44.10937033 16.10297553 45.46484375 16.09765625 C46.86731414 16.09578854 48.26978519 16.0943663 49.67225647 16.09336853 C53.3432092 16.08957116 57.01412165 16.07976496 60.68505859 16.06866455 C64.43912206 16.05839031 68.19319211 16.05385809 71.94726562 16.04882812 C79.29819534 16.03813991 86.649092 16.02109732 94 16 C94 16.33 94 16.66 94 17 C93.030625 17.12375 92.06125 17.2475 91.0625 17.375 C90.051875 17.58125 89.04125 17.7875 88 18 C87.67 18.66 87.34 19.32 87 20 C87.99 19.34 88.98 18.68 90 18 C91.99291992 17.77294922 91.99291992 17.77294922 94.23046875 17.8046875 C95.03291016 17.81113281 95.83535156 17.81757812 96.66210938 17.82421875 C97.49548828 17.84097656 98.32886719 17.85773438 99.1875 17.875 C100.4549707 17.88853516 100.4549707 17.88853516 101.74804688 17.90234375 C103.83215243 17.92589297 105.91611217 17.96176353 108 18 C108 18.33 108 18.66 108 19 C78.97543211 23.73776623 46.55248516 24.65760913 17.875 17.6875 C17.08851074 17.49905518 16.30202148 17.31061035 15.49169922 17.11645508 C8.97009935 15.36325312 2.82717244 12.74075866 -1 7 C-1.1875 3.875 -1.1875 3.875 -1 1 C-0.67 0.67 -0.34 0.34 0 0 Z " fill="#E31D28" transform="translate(38,100)"/>
<path d="M0 0 C-0.70059913 4.56719683 -2.31353781 8.57097714 -4.0625 12.8125 C-5.031875 15.184375 -6.00125 17.55625 -7 20 C-1.39 20 4.22 20 10 20 C10.33 18.35 10.66 16.7 11 15 C11.77321882 17.98241547 12.41196203 20.97580475 13 24 C11.68 24 10.36 24 9 24 C9 23.34 9 22.68 9 22 C7.02463255 22.34786708 7.02463255 22.34786708 5 23 C4.67 23.66 4.34 24.32 4 25 C5.32 25.33 6.64 25.66 8 26 C-1.13735193 25.6465241 -9.19324762 23.94290962 -17.0625 19.125 C-19.38796936 16.57448522 -20.16926088 14.32295648 -21 11 C-21.33 11 -21.66 11 -22 11 C-22 9.35 -22 7.7 -22 6 C-20.2984375 5.62875 -20.2984375 5.62875 -18.5625 5.25 C-15.2730228 4.44512792 -12.37184882 3.32254424 -9.3125 1.875 C-6.05766392 0.35457484 -3.65806369 -0.47200822 0 0 Z " fill="#F8F7F5" transform="translate(59,90)"/>
<path d="M0 0 C0.90105469 0.38027344 1.80210937 0.76054688 2.73046875 1.15234375 C3.41753906 1.45269531 4.10460937 1.75304688 4.8125 2.0625 C2.9375 7.8125 2.9375 7.8125 1.8125 10.0625 C-1.46559254 9.58277914 -4.51163043 8.96410326 -7.6875 8 C-12.26107857 6.77493431 -15.68985863 6.56328621 -20.1875 8.0625 C-19.62673199 10.55254504 -19.62673199 10.55254504 -18.1875 13.0625 C-15.53569954 14.31009241 -15.53569954 14.31009241 -12.1875 15.0625 C-10.55907961 15.5937954 -8.93414957 16.13588377 -7.3125 16.6875 C-6.53132813 16.94789062 -5.75015625 17.20828125 -4.9453125 17.4765625 C-4.36523438 17.66992188 -3.78515625 17.86328125 -3.1875 18.0625 C-3.8475 18.3925 -4.5075 18.7225 -5.1875 19.0625 C-3.5375 21.0425 -1.8875 23.0225 -0.1875 25.0625 C-4.84391803 24.39318489 -9.27171825 23.28990346 -13.75 21.875 C-14.39646484 21.69130859 -15.04292969 21.50761719 -15.70898438 21.31835938 C-20.95629467 19.64754745 -23.15655755 17.46335994 -26.1875 13.0625 C-26.84776381 9.8932337 -26.87864546 8.15257869 -25.125 5.38671875 C-22.55015155 2.17582143 -20.82212057 0.2466826 -16.69140625 -0.21875 C-15.72074219 -0.2909375 -14.75007812 -0.363125 -13.75 -0.4375 C-2.90734877 -1.24600662 -2.90734877 -1.24600662 0 0 Z " fill="#4F3987" transform="translate(150.1875,56.9375)"/>
<path d="M0 0 C0.99 0 1.98 0 3 0 C3 9.57 3 19.14 3 29 C-9 30 -9 30 -11.6875 27.75 C-13.82684345 23.26756611 -14.42090144 19.96663695 -14 15 C-12.50254139 12.39152371 -11.12971098 10.12971098 -9 8 C-2.47457627 7.76271186 -2.47457627 7.76271186 0 9 C0 6.03 0 3.06 0 0 Z " fill="#D7303E" transform="translate(81,128)"/>
<path d="M0 0 C2 2 2 2 2.125 5.125 C2.08375 6.07375 2.0425 7.0225 2 8 C3.98 8 5.96 8 8 8 C8 8.99 8 9.98 8 11 C6.02 11 4.04 11 2 11 C2.33 15.95 2.66 20.9 3 26 C4.65 26.33 6.3 26.66 8 27 C8 27.66 8 28.32 8 29 C4.625 29.125 4.625 29.125 1 29 C-1.81637036 26.18362964 -1.41672127 23.34208032 -1.5625 19.5625 C-1.77434943 14.20590735 -1.77434943 14.20590735 -3 9 C-2.34 9 -1.68 9 -1 9 C-1.33 7.02 -1.66 5.04 -2 3 C-2.99 3 -3.98 3 -5 3 C-5.33 5.97 -5.66 8.94 -6 12 C-8.97 12 -11.94 12 -15 12 C-15 13.32 -15 14.64 -15 16 C-13.906875 16.268125 -12.81375 16.53625 -11.6875 16.8125 C-6.42433234 18.5074184 -6.42433234 18.5074184 -5 21 C-5.22330713 24.64734979 -5.38372835 26.38372835 -8 29 C-10.6015625 29.1953125 -10.6015625 29.1953125 -13.625 29.125 C-15.12933594 29.09792969 -15.12933594 29.09792969 -16.6640625 29.0703125 C-17.43492188 29.04710937 -18.20578125 29.02390625 -19 29 C-19 27.68 -19 26.36 -19 25 C-18.37351562 25.0721875 -17.74703125 25.144375 -17.1015625 25.21875 C-15.87566406 25.35796875 -15.87566406 25.35796875 -14.625 25.5 C-13.40683594 25.63921875 -13.40683594 25.63921875 -12.1640625 25.78125 C-10.03087175 26.03352351 -10.03087175 26.03352351 -8 26 C-8.15054379 24.0288777 -8.15054379 24.0288777 -9 22 C-11.05134471 20.93453437 -11.05134471 20.93453437 -13.5 20.375 C-15.96875 19.7109375 -15.96875 19.7109375 -18 19 C-19.41441874 16.17116253 -19.31900332 14.12623255 -19 11 C-17.375 9.125 -17.375 9.125 -15 8 C-11.75 7.8125 -11.75 7.8125 -9 8 C-9.061875 7.236875 -9.12375 6.47375 -9.1875 5.6875 C-9 3 -9 3 -7.875 1.1875 C-5.16554166 -0.52849028 -3.13704316 -0.333728 0 0 Z " fill="#4B3484" transform="translate(107,128)"/>
<path d="M0 0 C1.65 0 3.3 0 5 0 C7.15239094 5.56718125 9.02356237 11.14421782 10.6875 16.875 C10.91244141 17.63296875 11.13738281 18.3909375 11.36914062 19.171875 C13 24.74356478 13 24.74356478 13 27 C12.01 27 11.02 27 10 27 C9.34 25.02 8.68 23.04 8 21 C4.37 20.67 0.74 20.34 -3 20 C-3.66 22.31 -4.32 24.62 -5 27 C-5.99 27 -6.98 27 -8 27 C-5.82609478 17.78402945 -3.51257696 8.81881025 0 0 Z " fill="#D6313C" transform="translate(52,130)"/>
<path d="M0 0 C3.0381988 2.57108482 4.24248733 5.41712863 5.78515625 9.046875 C6.04270691 9.64684799 6.30025757 10.24682098 6.56561279 10.86497498 C7.40473957 12.82381253 8.23373922 14.786757 9.0625 16.75 C9.63888328 18.10226106 10.21595584 19.45422852 10.79370117 20.8059082 C11.67252817 22.86244886 12.5507356 24.91923266 13.42610168 26.97724915 C15.27901979 31.33091826 17.16476634 35.66852667 19.078125 39.99609375 C19.54210693 41.04764648 20.00608887 42.09919922 20.48413086 43.18261719 C21.35372571 45.14971394 22.2268031 47.11527574 23.10375977 49.07910156 C23.48846436 49.95405273 23.87316895 50.82900391 24.26953125 51.73046875 C24.77383667 52.86585083 24.77383667 52.86585083 25.28833008 54.02416992 C26 56 26 56 26 59 C18.61092824 59.4845293 18.61092824 59.4845293 16.1875 57.5625 C14.46397131 53.84330651 13.29626199 49.88878596 12 46 C2.43 46 -7.14 46 -17 46 C-17 45.67 -17 45.34 -17 45 C-6.44 45 4.12 45 15 45 C19 54 19 54 19 56 C19.99 56 20.98 56 22 56 C18.80194492 47.80073112 15.47107887 39.72836629 11.72265625 31.76171875 C7.93725426 23.60483249 4.51427202 15.2762632 1 7 C0.01 7 -0.98 7 -2 7 C-2.33 6.34 -2.66 5.68 -3 5 C-1.5625 2.375 -1.5625 2.375 0 0 Z " fill="#F5DEDE" transform="translate(82,48)"/>
<path d="M0 0 C0.33 0 0.66 0 1 0 C1.18451025 19.00455581 1.18451025 19.00455581 0 27 C-0.99 27 -1.98 27 -3 27 C-3 26.01 -3 25.02 -3 24 C-3.99 24.66 -4.98 25.32 -6 26 C-8.78366254 26.34795782 -10.31937351 26.48848791 -12.6328125 24.828125 C-14.51400778 22.31269817 -14.39985793 20.5488843 -14.375 17.4375 C-14.38273438 16.46683594 -14.39046875 15.49617187 -14.3984375 14.49609375 C-14.26695312 13.67238281 -14.13546875 12.84867188 -14 12 C-10.1496895 9.43312633 -8.41430237 10.16711276 -4 11 C-3.67 10.01 -3.34 9.02 -3 8 C-3.99 7.67 -4.98 7.34 -6 7 C-4.68 7 -3.36 7 -2 7 C-2 6.34 -2 5.68 -2 5 C-1.34 5 -0.68 5 0 5 C0 3.35 0 1.7 0 0 Z " fill="#F7F4F7" transform="translate(154,129)"/>
<path d="M0 0 C0.66 0.33 1.32 0.66 2 1 C1.67 2.32 1.34 3.64 1 5 C10.68047305 8.60203648 20.44395196 10.79130449 30.71875 8.35546875 C33 8 33 8 36 10 C25.95858127 11.82466923 16.01524393 13.2547743 5.8125 13.75 C4.95309814 13.79439209 4.09369629 13.83878418 3.20825195 13.88452148 C-1.99302117 14.09216626 -6.85317135 13.78360021 -12 13 C-12 11.68 -12 10.36 -12 9 C-14.97 9 -17.94 9 -21 9 C-21.33 6.36 -21.66 3.72 -22 1 C-20 3 -20 3 -19 6 C-13.72 6.33 -8.44 6.66 -3 7 C-3.33 5.68 -3.66 4.36 -4 3 C-2.68 2.01 -1.36 1.02 0 0 Z M-23 9 C-21 10 -21 10 -21 10 Z " fill="#F9F1F0" transform="translate(116,103)"/>
<path d="M0 0 C7.14285714 -0.35714286 7.14285714 -0.35714286 10.25 0.9375 C13.10115555 4.29779047 12.42077345 7.94115238 12.25 12.1875 C12.23195312 13.03248047 12.21390625 13.87746094 12.1953125 14.74804688 C12.14820586 16.83251573 12.07646233 18.91640144 12 21 C2.00650195 22.58517555 2.00650195 22.58517555 -1.6875 20.4375 C-3.39431764 17.2676958 -3.66527087 15.54811129 -3 12 C0.53411825 8.03750377 3.82019812 7.40625897 9 7 C8.67 6.01 8.34 5.02 8 4 C5.03 4 2.06 4 -1 4 C-0.67 2.68 -0.34 1.36 0 0 Z " fill="#624C94" transform="translate(120,136)"/>
<path d="M0 0 C1.32 0 2.64 0 4 0 C4.33 0.66 4.66 1.32 5 2 C7.64 2 10.28 2 13 2 C13.66 3.32 14.32 4.64 15 6 C13.06953913 7.93046087 9.74014774 7.90356729 7.12890625 8.40234375 C4.8067342 8.86682043 4.8067342 8.86682043 3 11 C2.78323592 14.39597063 2.91926148 16.75778445 4 20 C0.21812119 21.83691257 -1.94568308 22.15837626 -6 21 C-6 20.67 -6 20.34 -6 20 C-4.02 20 -2.04 20 0 20 C0 19.34 0 18.68 0 18 C-0.804375 18.020625 -1.60875 18.04125 -2.4375 18.0625 C-5 18 -5 18 -6 17 C-6.07313567 14.46950598 -6.09247527 11.96695163 -6.0625 9.4375 C-6.05798828 8.72658203 -6.05347656 8.01566406 -6.04882812 7.28320312 C-6.03700864 5.52209987 -6.01907263 3.76103964 -6 2 C-4.02 2 -2.04 2 0 2 C0 1.34 0 0.68 0 0 Z " fill="#F9F8F9" transform="translate(115,137)"/>
<path d="M0 0 C0.66 0 1.32 0 2 0 C5.96 9.57 9.92 19.14 14 29 C13.01 29 12.02 29 11 29 C8.53218448 26.32242016 7.26486096 23.50850306 6 20.125 C4.52247507 16.28343517 2.91596213 12.64032805 1 9 C-1.60526888 11.60526888 -2.34134224 14.17939234 -3.625 17.625 C-4.07101563 18.81351563 -4.51703125 20.00203125 -4.9765625 21.2265625 C-5.31429687 22.14179687 -5.65203125 23.05703125 -6 24 C-5.01 24 -4.02 24 -3 24 C-2.690625 23.05125 -2.38125 22.1025 -2.0625 21.125 C-1 18 -1 18 0 16 C0.66 16 1.32 16 2 16 C2.99 19.3 3.98 22.6 5 26 C0.05 26 -4.9 26 -10 26 C-9.25489381 21.52936289 -8.73186404 18.93953608 -6.93359375 15.0390625 C-6.53076172 14.15605469 -6.12792969 13.27304688 -5.71289062 12.36328125 C-5.29201172 11.45964844 -4.87113281 10.55601563 -4.4375 9.625 C-4.01275391 8.69816406 -3.58800781 7.77132812 -3.15039062 6.81640625 C-2.10663024 4.54124315 -1.05636818 2.26932965 0 0 Z " fill="#F8E5E3" transform="translate(82,62)"/>
<path d="M0 0 C0.33 0 0.66 0 1 0 C1.08636719 0.67546875 1.17273438 1.3509375 1.26171875 2.046875 C1.40222656 2.93890625 1.54273437 3.8309375 1.6875 4.75 C1.87892578 6.07257813 1.87892578 6.07257813 2.07421875 7.421875 C3.33949982 10.94544254 4.83677054 12.01821769 8 14 C10.61911536 15.02342554 13.28531948 15.77374783 16 16.5 C21.19403464 17.88954801 25.00013006 19.18194233 29 23 C30.77510542 26.55021083 30.01213935 30.26088647 29 34 C26.05054152 37.8032491 26.05054152 37.8032491 23 39 C19.29180484 39.38711927 15.71206199 39.29722916 12 39 C12 38.67 12 38.34 12 38 C13.98 38 15.96 38 18 38 C18 37.34 18 36.68 18 36 C16.35 36 14.7 36 13 36 C13 35.67 13 35.34 13 35 C19.435 34.505 19.435 34.505 26 34 C26.04125 32.741875 26.0825 31.48375 26.125 30.1875 C26.14820313 29.47980469 26.17140625 28.77210937 26.1953125 28.04296875 C26.13254462 25.68640281 26.13254462 25.68640281 24 23 C21.40972469 22.07365715 18.89679049 21.28111785 16.25 20.5625 C9.91623105 18.83985405 4.84355796 16.884599 0.10546875 12.078125 C-1.33468628 9.3708371 -1.12297145 7.75871183 -0.6875 4.75 C-0.56761719 3.85796875 -0.44773437 2.9659375 -0.32421875 2.046875 C-0.21722656 1.37140625 -0.11023438 0.6959375 0 0 Z " fill="#E6E0EC" transform="translate(120,65)"/>
<path d="M0 0 C0.33 0 0.66 0 1 0 C1.33 2.97 1.66 5.94 2 9 C3.32 8.67 4.64 8.34 6 8 C5.9278125 8.62648437 5.855625 9.25296875 5.78125 9.8984375 C5.6884375 10.71570313 5.595625 11.53296875 5.5 12.375 C5.4071875 13.18710938 5.314375 13.99921875 5.21875 14.8359375 C4.96647649 16.96912825 4.96647649 16.96912825 5 19 C9.455 19.99 9.455 19.99 14 21 C14.33 22.65 14.66 24.3 15 26 C12.22899606 27.38550197 10.0665294 27.1877467 7 27 C6.01 26.34 5.02 25.68 4 25 C4.33 27.31 4.66 29.62 5 32 C3.9790625 31.7834375 3.9790625 31.7834375 2.9375 31.5625 C-0.36273082 30.93054091 -3.67144426 30.45686059 -7 30 C-5.1875 28.9375 -5.1875 28.9375 -3 28 C-2.01 28.33 -1.02 28.66 0 29 C0 19.43 0 9.86 0 0 Z " fill="#F5F4F5" transform="translate(84,128)"/>
<path d="M0 0 C1.29395307 3.88185921 0.41439168 4.99858083 -1.203125 8.69921875 C-1.68910156 9.82650391 -2.17507812 10.95378906 -2.67578125 12.11523438 C-3.19527344 13.29408203 -3.71476562 14.47292969 -4.25 15.6875 C-5.2566391 18.00328484 -6.26188116 20.31967753 -7.265625 22.63671875 C-7.71711914 23.66498779 -8.16861328 24.69325684 -8.63378906 25.75268555 C-10.19338718 29.45965741 -11.58789053 33.23437475 -13 37 C-4.42 37 4.16 37 13 37 C13.33 36.34 13.66 35.68 14 35 C14 35.99 14 36.98 14 38 C14.66 38.33 15.32 38.66 16 39 C5.44 39 -5.12 39 -16 39 C-15.2745861 33.92210273 -14.86128266 31.08937558 -12.9375 26.6875 C-12.49664062 25.67300781 -12.05578125 24.65851563 -11.6015625 23.61328125 C-11.07304688 22.42089844 -10.54453125 21.22851562 -10 20 C-9.31964729 18.43127792 -8.64000401 16.86224803 -7.9609375 15.29296875 C-7.24558452 13.6532997 -6.52943991 12.01397579 -5.8125 10.375 C-5.46759521 9.58053467 -5.12269043 8.78606934 -4.76733398 7.9675293 C-4.43805908 7.222854 -4.10878418 6.47817871 -3.76953125 5.7109375 C-3.33024292 4.71006104 -3.33024292 4.71006104 -2.88208008 3.68896484 C-2 2 -2 2 0 0 Z " fill="#FAEDEE" transform="translate(80,54)"/>
<path d="M0 0 C2.7927389 0.82909436 5.32032951 1.83712413 8 3 C6.98379995 6.04860014 6.22608429 6.86666922 4 9 C3.67 9.66 3.34 10.32 3 11 C0.72650747 10.57653574 -1.54376047 10.13573121 -3.8125 9.6875 C-5.07707031 9.44386719 -6.34164062 9.20023438 -7.64453125 8.94921875 C-12.32210941 7.62599233 -12.32210941 7.62599233 -14 5 C-14 3.68 -14 2.36 -14 1 C-9.43728961 -2.04180693 -5.25064633 -0.89888782 0 0 Z " fill="#F4F1F5" transform="translate(144,64)"/>
<path d="M0 0 C0.99 0 1.98 0 3 0 C3.33 5.61 3.66 11.22 4 17 C5.6396875 15.02 5.6396875 15.02 7.3125 13 C9.17578125 10.75 9.17578125 10.75 11 9 C11.99 9 12.98 9 14 9 C14 9.66 14 10.32 14 11 C13.34 11 12.68 11 12 11 C10.32667692 14.01198155 9 16.52456878 9 20 C10.40944214 21.99132192 11.95128458 23.70166138 13.65234375 25.44921875 C15 27 15 27 15 29 C13.3125 28.875 13.3125 28.875 11 28 C9.30911778 26.02043058 7.64169528 24.02054804 6 22 C5.01 21.67 4.02 21.34 3 21 C3 23.64 3 26.28 3 29 C2.01 29 1.02 29 0 29 C0 19.43 0 9.86 0 0 Z " fill="#564188" transform="translate(155,128)"/>
<path d="M0 0 C0 0.33 0 0.66 0 1 C-0.969375 1.12375 -1.93875 1.2475 -2.9375 1.375 C-3.948125 1.58125 -4.95875 1.7875 -6 2 C-6.33 2.66 -6.66 3.32 -7 4 C-6.01 3.34 -5.02 2.68 -4 2 C-2.00708008 1.77294922 -2.00708008 1.77294922 0.23046875 1.8046875 C1.43413086 1.81435547 1.43413086 1.81435547 2.66210938 1.82421875 C3.49548828 1.84097656 4.32886719 1.85773438 5.1875 1.875 C6.4549707 1.88853516 6.4549707 1.88853516 7.74804688 1.90234375 C9.83215243 1.92589297 11.91611217 1.96176353 14 2 C14 2.33 14 2.66 14 3 C-7.67772321 6.538519 -30.13956077 7.30978226 -52 5 C-52 4.67 -52 4.34 -52 4 C-37.81 3.67 -23.62 3.34 -9 3 C-23.19 2.67 -37.38 2.34 -52 2 C-52 1.67 -52 1.34 -52 1 C-46.52316215 0.85558969 -41.0462753 0.71326177 -35.56933594 0.57275391 C-33.71124864 0.52480534 -31.85317522 0.47631569 -29.99511719 0.42724609 C-19.99557767 0.1635338 -10.00414926 -0.09277418 0 0 Z " fill="#D2444E" transform="translate(132,116)"/>
<path d="M0 0 C2.0625 0.4375 2.0625 0.4375 4 1 C4 2.98 4 4.96 4 7 C3.34 7 2.68 7 2 7 C2.99 8.485 2.99 8.485 4 10 C4.1953125 13.13671875 4.1953125 13.13671875 4.125 16.6875 C4.10695313 17.86699219 4.08890625 19.04648438 4.0703125 20.26171875 C4.03550781 21.61716797 4.03550781 21.61716797 4 23 C3.67 23 3.34 23 3 23 C2.67 20.69 2.34 18.38 2 16 C0.58422523 17.18424326 0.58422523 17.18424326 0.9375 20.5625 C0.958125 21.696875 0.97875 22.83125 1 24 C0.34 24.33 -0.32 24.66 -1 25 C-0.9175 24.071875 -0.835 23.14375 -0.75 22.1875 C-0.66852191 18.99369039 -0.66852191 18.99369039 -2.625 17.25 C-5.34515954 15.81833709 -8.05532978 14.8700162 -11 14 C-10.67 12.35 -10.34 10.7 -10 9 C-7.03 9.33 -4.06 9.66 -1 10 C-1.020625 8.535625 -1.04125 7.07125 -1.0625 5.5625 C-1.08392007 4.04167482 -1.07179964 2.51928038 -1 1 C-0.67 0.67 -0.34 0.34 0 0 Z " fill="#F0ECF4" transform="translate(102,130)"/>
<path d="M0 0 C0.61746094 0.2165625 1.23492187 0.433125 1.87109375 0.65625 C1.87109375 1.31625 1.87109375 1.97625 1.87109375 2.65625 C0.59298828 2.41648437 0.59298828 2.41648437 -0.7109375 2.171875 C-4.11973276 1.65763389 -7.37094709 1.45427034 -10.81640625 1.40625 C-12.49283203 1.36757813 -12.49283203 1.36757813 -14.203125 1.328125 C-17.10933689 1.41388538 -17.10933689 1.41388538 -18.99609375 2.98828125 C-20.79325068 5.6344399 -20.57290077 7.54828837 -20.12890625 10.65625 C-17.03295001 14.70121796 -13.29250406 15.865181 -8.56640625 17.21875 C-0.50716607 19.56002495 -0.50716607 19.56002495 1.87109375 22.65625 C-2.78532428 21.98693489 -7.2131245 20.88365346 -11.69140625 19.46875 C-12.33787109 19.28505859 -12.98433594 19.10136719 -13.65039062 18.91210938 C-18.89770092 17.24129745 -21.0979638 15.05710994 -24.12890625 10.65625 C-24.78917006 7.4869837 -24.82005171 5.74632869 -23.06640625 2.98046875 C-16.67498146 -4.98979013 -8.84810311 -2.90896541 0 0 Z " fill="#E1DBEA" transform="translate(148.12890625,59.34375)"/>
<path d="M0 0 C1.80746134 1.80746134 1.17303483 4.50445781 1.1875 6.9375 C1.20167969 8.01902344 1.21585938 9.10054687 1.23046875 10.21484375 C1 13 1 13 -1 15 C-4.625 15.125 -4.625 15.125 -8 15 C-9.22691067 12.54617866 -9.20175931 10.80015897 -9.25 8.0625 C-9.27578125 7.18722656 -9.3015625 6.31195313 -9.328125 5.41015625 C-9 3 -9 3 -7.6796875 1.19921875 C-5.14899441 -0.60757841 -3.01612836 -0.26227203 0 0 Z " fill="#FCF9FA" transform="translate(80,139)"/>
<path d="M0 0 C0 0.99 0 1.98 0 3 C-2.97 3 -5.94 3 -9 3 C-9 4.32 -9 5.64 -9 7 C-8.44570312 7.18175781 -7.89140625 7.36351562 -7.3203125 7.55078125 C-6.59585938 7.80214844 -5.87140625 8.05351562 -5.125 8.3125 C-4.04605469 8.67794922 -4.04605469 8.67794922 -2.9453125 9.05078125 C-1 10 -1 10 1 13 C0.9375 15.5 0.9375 15.5 0 18 C-2.125 19.875 -2.125 19.875 -5 21 C-8.8125 20.6875 -8.8125 20.6875 -12 20 C-12.33 18.68 -12.66 17.36 -13 16 C-10.03 16.33 -7.06 16.66 -4 17 C-3.67 15.68 -3.34 14.36 -3 13 C-3.95712891 12.70996094 -3.95712891 12.70996094 -4.93359375 12.4140625 C-5.75988281 12.15367187 -6.58617187 11.89328125 -7.4375 11.625 C-8.26121094 11.36976563 -9.08492187 11.11453125 -9.93359375 10.8515625 C-12 10 -12 10 -13 8 C-13.55825243 2.75242718 -13.55825243 2.75242718 -11.5625 0.0625 C-7.64726537 -1.56088997 -4.09325725 -0.72594092 0 0 Z " fill="#553F87" transform="translate(186,137)"/>
<path d="M0 0 C5.32390506 0.51940537 8.6898298 1.93314813 13 5 C14.625 7.9375 14.625 7.9375 15 11 C13.875 13.875 13.875 13.875 12 16 C6.41666667 16 6.41666667 16 4 14 C3.70656713 12.04378089 3.42525405 10.08223052 3.28125 8.109375 C2.8726116 5.04458697 1.52585728 2.65366484 0 0 Z " fill="#E32933" transform="translate(179,88)"/>
<path d="M0 0 C2.16015625 1.265625 2.16015625 1.265625 2.9765625 3.40625 C3.03714844 4.01984375 3.09773438 4.6334375 3.16015625 5.265625 C0.0277409 4.7761851 -2.36413887 4.02730904 -5.27734375 2.703125 C-11.66613335 0.24963546 -19.84049903 -0.20313276 -26.296875 2.16796875 C-28.39924697 3.31561215 -28.39924697 3.31561215 -30.83984375 5.265625 C-31.49984375 3.945625 -32.15984375 2.625625 -32.83984375 1.265625 C-23.68508256 -6.05818395 -10.31534819 -3.49861069 0 0 Z " fill="#4D3684" transform="translate(153.83984375,50.734375)"/>
<path d="M0 0 C1.22589844 0.15275391 1.22589844 0.15275391 2.4765625 0.30859375 C3.41628906 0.43427734 3.41628906 0.43427734 4.375 0.5625 C4.045 1.8825 3.715 3.2025 3.375 4.5625 C2.26125 4.376875 1.1475 4.19125 0 4 C-3.45068861 3.24569343 -3.45068861 3.24569343 -5.625 4.5625 C-5.67891993 6.35383978 -5.71775571 8.14563899 -5.75 9.9375 C-5.77320313 10.93523437 -5.79640625 11.93296875 -5.8203125 12.9609375 C-5.89716848 15.72512173 -5.89716848 15.72512173 -3.625 17.5625 C-0.5336614 17.80029528 1.40604944 17.55215019 4.375 16.5625 C4 18.5 4 18.5 3.375 20.5625 C0.48638291 22.00680855 -1.42147701 21.93938506 -4.625 21.5625 C-7.5 19.75 -7.5 19.75 -9.625 16.5625 C-10.42527376 11.52681514 -10.31155728 7.12285746 -8.25 2.4375 C-5.54010602 -0.68930075 -3.92101522 -0.50413053 0 0 Z " fill="#564287" transform="translate(146.625,136.4375)"/>
<path d="M0 0 C3.91771294 2.61180863 3.98840602 4.51603172 5.1875 9 C5.53167969 10.258125 5.87585938 11.51625 6.23046875 12.8125 C7 16 7 16 7 18 C6.01 18 5.02 18 4 18 C3.34 16.02 2.68 14.04 2 12 C-1.63 11.67 -5.26 11.34 -9 11 C-9.66 13.31 -10.32 15.62 -11 18 C-11.99 18 -12.98 18 -14 18 C-13.77139942 16.53815942 -13.51629608 15.08044581 -13.25 13.625 C-13.11078125 12.81289062 -12.9715625 12.00078125 -12.828125 11.1640625 C-12 9 -12 9 -10.21875 7.6875 C-7.63732478 6.88762176 -5.91358243 6.9832967 -3.25 7.375 C-2.45078125 7.48585937 -1.6515625 7.59671875 -0.828125 7.7109375 C0.07679687 7.85402344 0.07679687 7.85402344 1 8 C0.67 5.36 0.34 2.72 0 0 Z " fill="#DB2132" transform="translate(58,139)"/>
<path d="M0 0 C0.33 0 0.66 0 1 0 C1.165 1.051875 1.33 2.10375 1.5 3.1875 C2.72146299 7.30058964 4.77049597 8.89458171 8.453125 10.9375 C14.69065811 13.53966105 21.44170771 14.72531477 28.125 15.5625 C31 16 31 16 34 18 C34 18.66 34 19.32 34 20 C23.07927388 19.48608348 9.50117157 17.47072654 1 10 C-1.29404844 6.55892734 -1.26293056 5.03160191 -1 1 C-0.67 0.67 -0.34 0.34 0 0 Z " fill="#D02935" transform="translate(38,100)"/>
<path d="M0 0 C0.99 0 1.98 0 3 0 C3 0.66 3 1.32 3 2 C4.65 2.33 6.3 2.66 8 3 C7.67 3.99 7.34 4.98 7 6 C6.88145444 7.83056393 6.82482767 9.66564306 6.8125 11.5 C6.79832031 12.4590625 6.78414062 13.418125 6.76953125 14.40625 C6.81244889 17.23746139 6.81244889 17.23746139 9 20 C6.23735711 20.59732819 3.83967231 21 1 21 C0.67 14.07 0.34 7.14 0 0 Z " fill="#F8F7F5" transform="translate(131,136)"/>
<path d="M0 0 C4.05280105 0.19299053 6.36760713 0.98119897 9.25 3.75 C14.14204127 9.16710329 14.27612536 13.95880321 14 21 C13.01 20.67 12.02 20.34 11 20 C10.3046875 18.00390625 10.3046875 18.00390625 9.875 15.5625 C9.26876383 12.1726922 9.26876383 12.1726922 8 9 C6.948125 9.061875 6.948125 9.061875 5.875 9.125 C2.61628372 8.98331668 0.0440053 8.13265314 -3 7 C-2.67 6.34 -2.34 5.68 -2 5 C-0.02 5 1.96 5 4 5 C3.01 4.319375 3.01 4.319375 2 3.625 C1.34 3.08875 0.68 2.5525 0 2 C0 1.34 0 0.68 0 0 Z " fill="#4F3084" transform="translate(145,76)"/>
<path d="M0 0 C0.77321882 2.98241547 1.41196203 5.97580475 2 9 C0.68 9 -0.64 9 -2 9 C-2 8.34 -2 7.68 -2 7 C-3.97536745 7.34786708 -3.97536745 7.34786708 -6 8 C-6.33 8.66 -6.66 9.32 -7 10 C-5.68 10.33 -4.36 10.66 -3 11 C-10.11484687 10.6143354 -16.35441866 9.60900601 -23 7 C-22.360625 6.87625 -21.72125 6.7525 -21.0625 6.625 C-20.381875 6.41875 -19.70125 6.2125 -19 6 C-18.67 5.34 -18.34 4.68 -18 4 C-12.39 4.33 -6.78 4.66 -1 5 C-0.67 3.35 -0.34 1.7 0 0 Z " fill="#F9D8D9" transform="translate(70,105)"/>
<path d="M0 0 C0.515625 0.45375 1.03125 0.9075 1.5625 1.375 C4.04304093 3.21012954 4.04304093 3.21012954 7.5625 4 C12.54205607 5.44859813 12.54205607 5.44859813 14 8 C13.77669287 11.64734979 13.61627165 13.38372835 11 16 C8.3984375 16.1953125 8.3984375 16.1953125 5.375 16.125 C3.87066406 16.09792969 3.87066406 16.09792969 2.3359375 16.0703125 C1.56507812 16.04710937 0.79421875 16.02390625 0 16 C0 14.68 0 13.36 0 12 C0.62648438 12.0721875 1.25296875 12.144375 1.8984375 12.21875 C2.71570313 12.3115625 3.53296875 12.404375 4.375 12.5 C5.18710938 12.5928125 5.99921875 12.685625 6.8359375 12.78125 C8.96912825 13.03352351 8.96912825 13.03352351 11 13 C10.85342916 11.03385733 10.85342916 11.03385733 10 9 C7.91965706 7.8624787 7.91965706 7.8624787 5.4375 7.25 C4.61121094 7.00765625 3.78492187 6.7653125 2.93359375 6.515625 C2.29550781 6.34546875 1.65742187 6.1753125 1 6 C0.67 4.02 0.34 2.04 0 0 Z " fill="#4E3981" transform="translate(88,141)"/>
<path d="M0 0 C10.56 0 21.12 0 32 0 C36 9 36 9 36 11 C36.99 11 37.98 11 39 11 C39.33 10.34 39.66 9.68 40 9 C40 10.32 40 11.64 40 13 C40.66 13 41.32 13 42 13 C42.33 12.34 42.66 11.68 43 11 C43 11.99 43 12.98 43 14 C35.61092824 14.4845293 35.61092824 14.4845293 33.1875 12.5625 C31.46397131 8.84330651 30.29626199 4.88878596 29 1 C19.43 1 9.86 1 0 1 C0 0.67 0 0.34 0 0 Z " fill="#EDC1C0" transform="translate(65,93)"/>
<path d="M0 0 C-0.66498383 4.38889325 -2.18757677 7.9811485 -4 12 C-5.125 8.25 -5.125 8.25 -4 6 C-8.31343181 5.74626872 -11.93801182 5.57962968 -16 7.1875 C-18.42509628 9.3852435 -18.7395304 10.78754157 -19 14 C-20.5 12.8125 -20.5 12.8125 -22 11 C-22.1875 8.3125 -22.1875 8.3125 -22 6 C-20.2984375 5.62875 -20.2984375 5.62875 -18.5625 5.25 C-15.2730228 4.44512792 -12.37184882 3.32254424 -9.3125 1.875 C-6.05766392 0.35457484 -3.65806369 -0.47200822 0 0 Z " fill="#EEDDDF" transform="translate(59,90)"/>
<path d="M0 0 C0.99 0 1.98 0 3 0 C3 9.57 3 19.14 3 29 C2.01 29 1.02 29 0 29 C0 19.43 0 9.86 0 0 Z " fill="#D52732" transform="translate(81,128)"/>
<path d="M0 0 C3.37523938 0.14138703 6.75012057 0.28795177 10.125 0.4375 C11.07632813 0.47681641 12.02765625 0.51613281 13.0078125 0.55664062 C17.74628987 0.77053023 22.33594301 1.06561821 27 2 C27 2.33 27 2.66 27 3 C19.08 3 11.16 3 3 3 C2.34 5.31 1.68 7.62 1 10 C-0.32 10 -1.64 10 -3 10 C-2.01 6.7 -1.02 3.4 0 0 Z " fill="#D92F3B" transform="translate(64,94)"/>
<path d="M0 0 C1.19625 0.33 2.3925 0.66 3.625 1 C10.66179703 2.57490219 18.68289137 3.00526958 25.734375 1.36328125 C28 1 28 1 31 3 C28.02211984 3.50893577 25.0430746 4.00730636 22.0625 4.5 C21.23169922 4.64308594 20.40089844 4.78617187 19.54492188 4.93359375 C13.95396627 5.84729077 8.66506422 6.13719631 3 6 C3 5.34 3 4.68 3 4 C2.030625 3.87625 1.06125 3.7525 0.0625 3.625 C-0.948125 3.41875 -1.95875 3.2125 -3 3 C-3.33 2.34 -3.66 1.68 -4 1 C-2.68 1.33 -1.36 1.66 0 2 C0 1.34 0 0.68 0 0 Z " fill="#EEE0E5" transform="translate(121,110)"/>
<path d="M0 0 C1.0625 1.8125 1.0625 1.8125 2 4 C1.67 4.99 1.34 5.98 1 7 C2.65 7 4.3 7 6 7 C4.68 7.33 3.36 7.66 2 8 C2 8.99 2 9.98 2 11 C2.99 11.33 3.98 11.66 5 12 C1.88089144 13.79275866 -0.67682428 14.34290718 -4.25 14.625 C-5.14203125 14.69976562 -6.0340625 14.77453125 -6.953125 14.8515625 C-7.62859375 14.90054688 -8.3040625 14.94953125 -9 15 C-8.60167969 14.5875 -8.20335937 14.175 -7.79296875 13.75 C-3.7997417 9.39728536 -1.77780001 5.62970004 0 0 Z " fill="#F0EDF1" transform="translate(158,97)"/>
<path d="M0 0 C7.68339645 0.43861909 15.83336475 1.02061231 23 4 C25.33780006 7.36278146 25.53707227 10.98795966 26 15 C25.34 15 24.68 15 24 15 C23.7834375 13.63875 23.7834375 13.63875 23.5625 12.25 C21.26465406 7.47048045 17.82387492 6.69244425 13 5 C11.96875 4.608125 10.9375 4.21625 9.875 3.8125 C6.60101671 2.88724385 3.374818 2.40497816 0 2 C0 1.34 0 0.68 0 0 Z " fill="#D12E3F" transform="translate(157,83)"/>
<path d="M0 0 C1.32 0 2.64 0 4 0 C4.33 0.66 4.66 1.32 5 2 C7.64 2 10.28 2 13 2 C13.66 3.32 14.32 4.64 15 6 C13.41727399 7.58272601 11.61965997 7.34735747 9.4375 7.5625 C8.61121094 7.64628906 7.78492187 7.73007813 6.93359375 7.81640625 C5.97646484 7.90728516 5.97646484 7.90728516 5 8 C5 6.68 5 5.36 5 4 C4.484375 4.20625 3.96875 4.4125 3.4375 4.625 C-0.03265671 5.15887026 -2.70635791 4.07676761 -6 3 C-6 2.67 -6 2.34 -6 2 C-4.02 2 -2.04 2 0 2 C0 1.34 0 0.68 0 0 Z " fill="#EDE9F1" transform="translate(115,137)"/>
<path d="M0 0 C2.05078125 0.03255208 4.1015625 0.06510417 6.15234375 0.09765625 C6.15234375 0.75765625 6.15234375 1.41765625 6.15234375 2.09765625 C6.81234375 2.09765625 7.47234375 2.09765625 8.15234375 2.09765625 C8.48234375 1.43765625 8.81234375 0.77765625 9.15234375 0.09765625 C8.82234375 2.07765625 8.49234375 4.05765625 8.15234375 6.09765625 C8.81234375 6.09765625 9.47234375 6.09765625 10.15234375 6.09765625 C10.15234375 6.75765625 10.15234375 7.41765625 10.15234375 8.09765625 C10.81234375 8.09765625 11.47234375 8.09765625 12.15234375 8.09765625 C11.49333621 11.17302479 10.61366592 13.17501191 9.15234375 16.09765625 C7.83234375 11.80765625 6.51234375 7.51765625 5.15234375 3.09765625 C3.50234375 2.76765625 1.85234375 2.43765625 0.15234375 2.09765625 C0.02859375 2.86078125 -0.09515625 3.62390625 -0.22265625 4.41015625 C-0.84765625 7.09765625 -0.84765625 7.09765625 -2.84765625 10.09765625 C-2.87454841 8.61858733 -2.89400246 7.13938142 -2.91015625 5.66015625 C-2.92175781 4.83644531 -2.93335938 4.01273438 -2.9453125 3.1640625 C-2.8198894 0.51010975 -2.66068535 0.14062819 0 0 Z " fill="#F9F2EF" transform="translate(51.84765625,127.90234375)"/>
<path d="M0 0 C1.8125 0.125 1.8125 0.125 4 1 C5.6875 3.9375 5.6875 3.9375 7 7 C7.33 7.66 7.66 8.32 8 9 C3.81565242 11.23165204 0.72838079 11 -4 11 C-4 8.03 -4 5.06 -4 2 C-2 5 -2 5 -2 8 C-1.01 8 -0.02 8 1 8 C0.67 7.34 0.34 6.68 0 6 C-0.039992 4.00039988 -0.04346799 1.99952758 0 0 Z " fill="#F4D9DA" transform="translate(64,149)"/>
<path d="M0 0 C1.203125 1.49609375 1.203125 1.49609375 2 4 C1.0456365 6.85425382 0.03615445 9.36642906 -1.25 12.0625 C-1.57613281 12.78244141 -1.90226562 13.50238281 -2.23828125 14.24414062 C-3.66627655 17.35740162 -5.09212052 20.13818078 -7 23 C-8 22 -8 22 -8.25 18.625 C-8 15 -8 15 -6.5 13.0625 C-6.005 12.711875 -5.51 12.36125 -5 12 C-5.66 11.34 -6.32 10.68 -7 10 C-6.57847656 9.52949219 -6.15695313 9.05898438 -5.72265625 8.57421875 C-5.17480469 7.95160156 -4.62695312 7.32898437 -4.0625 6.6875 C-3.51722656 6.07261719 -2.97195312 5.45773438 -2.41015625 4.82421875 C-0.79918441 2.94758042 -0.79918441 2.94758042 0 0 Z " fill="#F6EFED" transform="translate(72,54)"/>
<path d="M0 0 C0.99 0.33 1.98 0.66 3 1 C3.66 3.31 4.32 5.62 5 8 C-3.25 8 -11.5 8 -20 8 C-20 7.34 -20 6.68 -20 6 C-19.34 6 -18.68 6 -18 6 C-17.67 5.01 -17.34 4.02 -17 3 C-16.67 3.66 -16.34 4.32 -16 5 C-10.39 5 -4.78 5 1 5 C0.67 3.35 0.34 1.7 0 0 Z " fill="#D52530" transform="translate(87,83)"/>
<path d="M0 0 C1.32 0.66 2.64 1.32 4 2 C3.71617054 3.75128818 3.42260471 5.50100003 3.125 7.25 C2.96257812 8.22453125 2.80015625 9.1990625 2.6328125 10.203125 C2.05144152 12.77264117 1.29159735 14.72071056 0 17 C-3.00559652 11.99067246 -3.29341888 8.67276511 -3 3 C-1.68 3 -0.36 3 1 3 C0.67 2.01 0.34 1.02 0 0 Z " fill="#F8F7F6" transform="translate(65,136)"/>
<path d="M0 0 C7.14285714 -0.35714286 7.14285714 -0.35714286 10.25 0.9375 C13.10115555 4.29779047 12.42077345 7.94115238 12.25 12.1875 C12.23195312 13.03248047 12.21390625 13.87746094 12.1953125 14.74804688 C12.14820586 16.83251573 12.07646233 18.91640144 12 21 C11.34 20.67 10.68 20.34 10 20 C10.02320313 19.09636719 10.04640625 18.19273437 10.0703125 17.26171875 C10.08835938 16.08222656 10.10640625 14.90273437 10.125 13.6875 C10.14820313 12.51574219 10.17140625 11.34398437 10.1953125 10.13671875 C10.25320618 6.83606339 10.25320618 6.83606339 8 4 C5.79274927 3.63637182 5.79274927 3.63637182 3.375 3.8125 C2.55773437 3.83957031 1.74046875 3.86664063 0.8984375 3.89453125 C-0.04128906 3.94673828 -0.04128906 3.94673828 -1 4 C-0.67 2.68 -0.34 1.36 0 0 Z " fill="#4B3682" transform="translate(120,136)"/>
<path d="M0 0 C1.9375 0.25 1.9375 0.25 4 1 C6 4 6 4 5.9375 6.5 C5 9 5 9 2.875 10.875 C-0.78536663 12.30731738 -3.20873606 11.8177236 -7 11 C-7.33 9.68 -7.66 8.36 -8 7 C-5.03 7.33 -2.06 7.66 1 8 C1.33 6.68 1.66 5.36 2 4 C0.64555699 2.22809091 0.64555699 2.22809091 -1 1 C-0.67 0.67 -0.34 0.34 0 0 Z " fill="#503C84" transform="translate(181,146)"/>
<path d="M0 0 C2.9765625 2.6640625 2.9765625 2.6640625 3.1875 5.6875 C3.125625 6.450625 3.06375 7.21375 3 8 C2.01 8 1.02 8 0 8 C-0.12375 8.7425 -0.2475 9.485 -0.375 10.25 C-0.95486701 12.80141485 -1.73708739 14.7267573 -3 17 C-3.99 17 -4.98 17 -6 17 C-5.49487476 10.77012202 -2.67395877 5.54525767 0 0 Z " fill="#D52E3C" transform="translate(82,69)"/>
<path d="M0 0 C1.670625 0.061875 1.670625 0.061875 3.375 0.125 C3.375 2.105 3.375 4.085 3.375 6.125 C1.02061267 7.55444945 -0.10532433 8.21161261 -2.875 7.75 C-3.4525 7.54375 -4.03 7.3375 -4.625 7.125 C-5.25 4.75 -5.25 4.75 -5.625 2.125 C-3.625 0.125 -3.625 0.125 0 0 Z " fill="#EDE9EF" transform="translate(125.625,146.875)"/>
<path d="M0 0 C3.3 0.33 6.6 0.66 10 1 C9.34 2.32 8.68 3.64 8 5 C8.66 5.66 9.32 6.32 10 7 C6.59068103 8.13643966 5.99664544 7.86747764 2.8125 6.5625 C2.09707031 6.27503906 1.38164062 5.98757812 0.64453125 5.69140625 C-0.16951172 5.34916016 -0.16951172 5.34916016 -1 5 C-0.67 3.35 -0.34 1.7 0 0 Z " fill="#F8F6F5" transform="translate(177,139)"/>
<path d="M0 0 C0.33 0 0.66 0 1 0 C1.04898438 0.62648437 1.09796875 1.25296875 1.1484375 1.8984375 C1.22320312 2.71570313 1.29796875 3.53296875 1.375 4.375 C1.44460937 5.18710938 1.51421875 5.99921875 1.5859375 6.8359375 C1.82892588 9.20334191 1.82892588 9.20334191 4 11 C7.0913386 11.23779528 9.03104944 10.98965019 12 10 C11.625 11.9375 11.625 11.9375 11 14 C8.11138291 15.44430855 6.20352299 15.37688506 3 15 C0 13.125 0 13.125 -2 10 C-1.81388843 6.51705485 -1.01461386 3.32819195 0 0 Z " fill="#695494" transform="translate(139,143)"/>
<path d="M0 0 C2 1 2 1 3.125 3.75 C3.91973395 6.70186896 4.17810598 8.97219837 4 12 C1.69 12 -0.62 12 -3 12 C-2.49202991 7.6822542 -1.80317221 3.96697886 0 0 Z " fill="#F9F0F1" transform="translate(54,134)"/>
<path d="M0 0 C0.33 0 0.66 0 1 0 C1.33 3.63 1.66 7.26 2 11 C3.093125 10.835 4.18625 10.67 5.3125 10.5 C9 10 9 10 12 10 C11 13 11 13 9.25 14.1875 C6.52290844 15.17228306 4.87406334 15.50296109 2 15 C-0.3125 12.5 -0.3125 12.5 -2 10 C-1.34 9.67 -0.68 9.34 0 9 C0 6.03 0 3.06 0 0 Z " fill="#D53E48" transform="translate(70,143)"/>
<path d="M0 0 C2.32472205 2.85306797 3.7508258 5.54074837 5 9 C4.01 9.495 4.01 9.495 3 10 C3 11.32 3 12.64 3 14 C-2.61 14 -8.22 14 -14 14 C-13.67 13.34 -13.34 12.68 -13 12 C-8.05 12.33 -3.1 12.66 2 13 C1.01 11.02 0.02 9.04 -1 7 C-1 5.68 -1 4.36 -1 3 C-1.66 2.67 -2.32 2.34 -3 2 C-2.01 2 -1.02 2 0 2 C0 1.34 0 0.68 0 0 Z " fill="#D54C54" transform="translate(85,75)"/>
<path d="M0 0 C6.27 0 12.54 0 19 0 C18.67 0.99 18.34 1.98 18 3 C12.06 3 6.12 3 0 3 C0 2.01 0 1.02 0 0 Z " fill="#E03A3F" transform="translate(70,99)"/>
<path d="M0 0 C0.99 0 1.98 0 3 0 C3 0.66 3 1.32 3 2 C3.66 2 4.32 2 5 2 C5.2475 2.598125 5.495 3.19625 5.75 3.8125 C7.16370012 6.28647521 8.65055383 7.43370255 11 9 C10.01 9.33 9.02 9.66 8 10 C8.99 10.66 9.98 11.32 11 12 C9.68 13.32 8.36 14.64 7 16 C6.67 15.34 6.34 14.68 6 14 C5.34 14 4.68 14 4 14 C3.896875 12.80375 3.79375 11.6075 3.6875 10.375 C3.21108648 6.4375824 1.98869284 3.45859625 0 0 Z " fill="#F01E2A" transform="translate(179,88)"/>
<path d="M0 0 C11.53394952 2.95627444 11.53394952 2.95627444 15 7 C15.4375 10.125 15.4375 10.125 15 13 C14.34 13.66 13.68 14.32 13 15 C12.01 13.68 11.02 12.36 10 11 C10.66 10.01 11.32 9.02 12 8 C11.34 7.67 10.68 7.34 10 7 C10 6.34 10 5.68 10 5 C8.35 5 6.7 5 5 5 C5 4.34 5 3.68 5 3 C3.35 2.67 1.7 2.34 0 2 C0 1.34 0 0.68 0 0 Z " fill="#F3E6E2" transform="translate(166,86)"/>
<path d="M0 0 C0.66 0 1.32 0 2 0 C2.99 3.3 3.98 6.6 5 10 C1.21812119 11.83691257 -0.94568308 12.15837626 -5 11 C-5 10.67 -5 10.34 -5 10 C-3.02 10 -1.04 10 1 10 C1 9.34 1 8.68 1 8 C-0.65 8 -2.3 8 -4 8 C-3.67 7.01 -3.34 6.02 -3 5 C-2.34 5 -1.68 5 -1 5 C-0.67 3.35 -0.34 1.7 0 0 Z " fill="#FBF9F7" transform="translate(114,147)"/>
<path d="M0 0 C0.33 0 0.66 0 1 0 C1.01458252 0.73637695 1.02916504 1.47275391 1.04418945 2.23144531 C1.11871111 5.57149004 1.21535873 8.91053981 1.3125 12.25 C1.33505859 13.40886719 1.35761719 14.56773437 1.38085938 15.76171875 C1.41630859 16.87675781 1.45175781 17.99179688 1.48828125 19.140625 C1.51446533 20.16704102 1.54064941 21.19345703 1.56762695 22.25097656 C2.05369572 25.34139685 3.12711859 26.57309444 5 29 C4.67 29.99 4.34 30.98 4 32 C3.484375 31.855625 2.96875 31.71125 2.4375 31.5625 C-0.68509571 30.84190099 -3.82550692 30.42733561 -7 30 C-5.1875 28.9375 -5.1875 28.9375 -3 28 C-2.01 28.33 -1.02 28.66 0 29 C0 19.43 0 9.86 0 0 Z " fill="#FAE9E7" transform="translate(84,128)"/>
<path d="M0 0 C2.85818883 2.47989913 4.19893393 5.13646878 5.75 8.5625 C6.19859375 9.53316406 6.6471875 10.50382812 7.109375 11.50390625 C7.40328125 12.32761719 7.6971875 13.15132812 8 14 C7.67 14.66 7.34 15.32 7 16 C6.34 16 5.68 16 5 16 C3.68 13.03 2.36 10.06 1 7 C0.01 7 -0.98 7 -2 7 C-2.33 6.34 -2.66 5.68 -3 5 C-1.5625 2.375 -1.5625 2.375 0 0 Z " fill="#F4CECC" transform="translate(82,48)"/>
<path d="M0 0 C3.465 1.485 3.465 1.485 7 3 C7 4.98 7 6.96 7 9 C3.78548731 10.60725635 0.56387464 10.05748185 -3 10 C-2.01 9.67 -1.02 9.34 0 9 C0.84454356 5.62182575 1.10844919 3.32534757 0 0 Z " fill="#E9E4EC" transform="translate(136,88)"/>
<path d="M0 0 C0.33 0.66 0.66 1.32 1 2 C3.02463255 2.65213292 3.02463255 2.65213292 5 3 C5.5534764 5.07553648 6 6.84365964 6 9 C6.061875 9.804375 6.12375 10.60875 6.1875 11.4375 C6 14 6 14 4.5 15.8125 C4.005 16.204375 3.51 16.59625 3 17 C2.01 16.01 1.02 15.02 0 14 C0.33 13.2575 0.66 12.515 1 11.75 C2.22782871 8.86116688 2.22782871 8.86116688 2 5 C1.01 4.67 0.02 4.34 -1 4 C-0.67 2.68 -0.34 1.36 0 0 Z " fill="#F8F6F8" transform="translate(154,48)"/>
<path d="M0 0 C0.99 0 1.98 0 3 0 C3 0.66 3 1.32 3 2 C4.65 2.33 6.3 2.66 8 3 C7.34 6.63 6.68 10.26 6 14 C5.67 14 5.34 14 5 14 C4.67 10.7 4.34 7.4 4 4 C3.34 4 2.68 4 2 4 C2 9.61 2 15.22 2 21 C1.67 21 1.34 21 1 21 C0.67 14.07 0.34 7.14 0 0 Z " fill="#E1D9E8" transform="translate(131,136)"/>
<path d="M0 0 C-0.33 0.99 -0.66 1.98 -1 3 C-5.95 3.33 -10.9 3.66 -16 4 C-16 4.33 -16 4.66 -16 5 C-17.98 5 -19.96 5 -22 5 C-21.67 4.01 -21.34 3.02 -21 2 C-18.06271706 1.66465271 -15.12520182 1.33163987 -12.1875 1 C-11.35412109 0.90460938 -10.52074219 0.80921875 -9.66210938 0.7109375 C-8.45844727 0.57558594 -8.45844727 0.57558594 -7.23046875 0.4375 C-6.12288208 0.31181641 -6.12288208 0.31181641 -4.99291992 0.18359375 C-3 0 -3 0 0 0 Z " fill="#EE1C28" transform="translate(147,115)"/>
<path d="M0 0 C1.89510699 -0.08160748 3.79124504 -0.13946459 5.6875 -0.1875 C6.74324219 -0.22230469 7.79898438 -0.25710937 8.88671875 -0.29296875 C12.35422768 0.03333385 14.18432448 1.00969875 17 3 C16.34 3.66 15.68 4.32 15 5 C11.9609375 4.7578125 11.9609375 4.7578125 8.375 4.125 C7.18648437 3.92132813 5.99796875 3.71765625 4.7734375 3.5078125 C3.85820312 3.34023438 2.94296875 3.17265625 2 3 C2 2.34 2 1.68 2 1 C1.34 0.67 0.68 0.34 0 0 Z " fill="#503684" transform="translate(132,60)"/>
<path d="M0 0 C0.33 0 0.66 0 1 0 C1 2.64 1 5.28 1 8 C0.06027344 7.94779297 0.06027344 7.94779297 -0.8984375 7.89453125 C-1.71570313 7.86746094 -2.53296875 7.84039062 -3.375 7.8125 C-4.59316406 7.76029297 -4.59316406 7.76029297 -5.8359375 7.70703125 C-6.55007812 7.80371094 -7.26421875 7.90039062 -8 8 C-8.99 9.485 -8.99 9.485 -10 11 C-10.66 9.68 -11.32 8.36 -12 7 C-10.09598862 5.09598862 -8.66574314 4.06479561 -5.953125 3.80078125 C-3.96766727 3.8113422 -1.9830086 3.90084957 0 4 C0 2.68 0 1.36 0 0 Z " fill="#533C84" transform="translate(100,132)"/>
<path d="M0 0 C3.96 0 7.92 0 12 0 C11.34 1.32 10.68 2.64 10 4 C11.32 4.33 12.64 4.66 14 5 C12.24967156 4.85816304 10.49974466 4.71136571 8.75 4.5625 C7.77546875 4.48128906 6.8009375 4.40007812 5.796875 4.31640625 C3.43538247 4.04925416 1.28098935 3.64628032 -1 3 C-0.67 2.01 -0.34 1.02 0 0 Z " fill="#FBEAE8" transform="translate(53,111)"/>
<path d="M0 0 C3.24969769 -0.11638036 6.4988583 -0.18730581 9.75 -0.25 C10.67039063 -0.28351563 11.59078125 -0.31703125 12.5390625 -0.3515625 C19.40898911 -0.45112665 19.40898911 -0.45112665 22.640625 2.015625 C23.08921875 2.67046875 23.5378125 3.3253125 24 4 C20.38639465 5.11736481 18.07998291 4.62738161 14.4375 3.61328125 C9.69085931 2.41901428 4.8323681 1.757071 0 1 C0 0.67 0 0.34 0 0 Z " fill="#F5DCD9" transform="translate(156,82)"/>
<path d="M0 0 C0.33 0 0.66 0 1 0 C1.33 4.62 1.66 9.24 2 14 C3.65 14.33 5.3 14.66 7 15 C7 15.66 7 16.32 7 17 C4.69 17 2.38 17 0 17 C-2.50014115 13.25904806 -1.90042304 10.55790579 -1.125 6.25 C-0.92132813 5.07953125 -0.71765625 3.9090625 -0.5078125 2.703125 C-0.34023437 1.81109375 -0.17265625 0.9190625 0 0 Z " fill="#564285" transform="translate(108,140)"/>
<path d="M0 0 C1 1 1 1 1.09765625 3.72265625 C1.08605469 4.82480469 1.07445313 5.92695313 1.0625 7.0625 C1.05347656 8.16722656 1.04445313 9.27195313 1.03515625 10.41015625 C1.02355469 11.26480469 1.01195313 12.11945313 1 13 C0.67 13 0.34 13 0 13 C0 9.37 0 5.74 0 2 C-0.99 3.485 -0.99 3.485 -2 5 C-5.625 5.1875 -5.625 5.1875 -9 5 C-8.625 3.0625 -8.625 3.0625 -8 1 C-5.26752652 -0.36623674 -3.01801098 -0.128426 0 0 Z " fill="#F6E2E0" transform="translate(80,139)"/>
<path d="M0 0 C6.93 0 13.86 0 21 0 C21.33 1.98 21.66 3.96 22 6 C21.01 6.495 21.01 6.495 20 7 C19.75523926 6.35708008 19.51047852 5.71416016 19.25830078 5.05175781 C18.20694702 2.84692452 18.20694702 2.84692452 16.12060547 2.36230469 C15.37697754 2.29946289 14.63334961 2.23662109 13.8671875 2.171875 C12.65869141 2.05585937 12.65869141 2.05585937 11.42578125 1.9375 C10.16314453 1.8446875 10.16314453 1.8446875 8.875 1.75 C8.02550781 1.67265625 7.17601563 1.5953125 6.30078125 1.515625 C4.20196182 1.32696707 2.1010993 1.16129651 0 1 C0 0.67 0 0.34 0 0 Z " fill="#D61B25" transform="translate(73,94)"/>
<path d="M0 0 C0.99 0 1.98 0 3 0 C1.17708333 4.6875 1.17708333 4.6875 -0.0625 6.875 C-1.37123644 9.84146927 -1.63046254 12.79734198 -2 16 C-2.66 16 -3.32 16 -4 16 C-4.54330269 9.34454208 -3.77304004 5.54165256 0 0 Z " fill="#F3ECF3" transform="translate(122,56)"/>
<path d="M0 0 C2 2 2 2 3 7 C-4.26 7 -11.52 7 -19 7 C-19 6.67 -19 6.34 -19 6 C-10.585 5.505 -10.585 5.505 -2 5 C-2 3.68 -2 2.36 -2 1 C-1.34 0.67 -0.68 0.34 0 0 Z " fill="#F2CDCF" transform="translate(91,97)"/>
<path d="M0 0 C1.1171875 1.671875 1.1171875 1.671875 2 4 C1.3203125 6.578125 1.3203125 6.578125 0.125 9.25 C-0.26429687 10.14203125 -0.65359375 11.0340625 -1.0546875 11.953125 C-1.36664063 12.62859375 -1.67859375 13.3040625 -2 14 C-1.01 14.33 -0.02 14.66 1 15 C-0.65 14.67 -2.3 14.34 -4 14 C-5.305239 10.08428299 -4.32239848 8.96107003 -2.5625 5.3125 C-2.08941406 4.31863281 -1.61632813 3.32476562 -1.12890625 2.30078125 C-0.75636719 1.54152344 -0.38382813 0.78226562 0 0 Z " fill="#F1DDDB" transform="translate(63,90)"/>
<path d="M0 0 C2.51912388 0.33588318 3.67196119 0.57354954 5.25 2.625 C6.25295915 5.8010373 6.12721966 8.69228878 6 12 C5.34 12 4.68 12 4 12 C3.67 12.66 3.34 13.32 3 14 C2.95101562 13.40832031 2.90203125 12.81664063 2.8515625 12.20703125 C2.43543133 7.80895528 1.95034405 4.03071103 0 0 Z " fill="#EFEAF5" transform="translate(150,84)"/>
<path d="M0 0 C2.64 0 5.28 0 8 0 C8.125 7.75 8.125 7.75 7 10 C6.34 10 5.68 10 5 10 C4.375 7.125 4.375 7.125 4 4 C4.66 3.34 5.32 2.68 6 2 C4.02 2.33 2.04 2.66 0 3 C0 2.01 0 1.02 0 0 Z " fill="#F5FAF9" transform="translate(52,150)"/>
<path d="M0 0 C2.29633824 3.44450737 2.54016485 5.93812283 3 10 C2.01 10 1.02 10 0 10 C-0.66 8.02 -1.32 6.04 -2 4 C-5.63 3.67 -9.26 3.34 -13 3 C-13 2.67 -13 2.34 -13 2 C-8.71 2 -4.42 2 0 2 C0 1.34 0 0.68 0 0 Z " fill="#D24953" transform="translate(62,147)"/>
<path d="M0 0 C0 0.66 0 1.32 0 2 C-1.258125 2.2475 -2.51625 2.495 -3.8125 2.75 C-6.8276875 3.48385516 -7.76542813 3.73415188 -9.875 6.125 C-10.24625 6.74375 -10.6175 7.3625 -11 8 C-11.66 8 -12.32 8 -13 8 C-12.68762196 5.11050316 -12.35661121 3.41366901 -10.4375 1.1875 C-6.8580787 -0.55632063 -3.95820158 -0.19791008 0 0 Z " fill="#49347D" transform="translate(130,144)"/>
<path d="M0 0 C1.32830615 3.98491845 0.23204404 5.40048548 -1.4375 9.1875 C-1.91058594 10.27417969 -2.38367188 11.36085938 -2.87109375 12.48046875 C-3.42990234 13.72763672 -3.42990234 13.72763672 -4 15 C-4.66 15 -5.32 15 -6 15 C-5.48640535 9.8640535 -3.7815677 3.7815677 0 0 Z " fill="#F8E6E2" transform="translate(80,54)"/>
<path d="M0 0 C0.515625 0.2475 1.03125 0.495 1.5625 0.75 C-1.19270215 3.70929119 -3.90377288 5.78681826 -7.4375 7.75 C-8.0975 6.43 -8.7575 5.11 -9.4375 3.75 C-3.0375 -0.31153846 -3.0375 -0.31153846 0 0 Z " fill="#59408E" transform="translate(130.4375,48.25)"/>
<path d="M0 0 C1.53202706 0.25195908 3.05257128 0.57596777 4.5625 0.9375 C5.38878906 1.13214844 6.21507813 1.32679687 7.06640625 1.52734375 C8.02353516 1.76130859 8.02353516 1.76130859 9 2 C8.34 3.32 7.68 4.64 7 6 C7 5.34 7 4.68 7 4 C3.04 4 -0.92 4 -5 4 C-4.01 3.67 -3.02 3.34 -2 3 C-1.67 2.34 -1.34 1.68 -1 1 C-0.67 0.67 -0.34 0.34 0 0 Z " fill="#F3E8E7" transform="translate(79,42)"/>
<path d="M0 0 C1.32 0 2.64 0 4 0 C4.41176754 3.60296594 4.1535853 4.78402067 2 7.8125 C1.34 8.534375 0.68 9.25625 0 10 C0 9.34 0 8.68 0 8 C-2.33075929 8.95865509 -2.33075929 8.95865509 -4 12 C-3.4739075 8.21213403 -2.61896089 5.82847776 0 3 C0.66 3 1.32 3 2 3 C2 2.34 2 1.68 2 1 C1.34 0.67 0.68 0.34 0 0 Z " fill="#EAE5EE" transform="translate(167,136)"/>
<path d="M0 0 C0.99 0.33 1.98 0.66 3 1 C2.36191406 1.30292969 1.72382812 1.60585937 1.06640625 1.91796875 C0.24011719 2.33691406 -0.58617187 2.75585938 -1.4375 3.1875 C-2.26121094 3.59355469 -3.08492187 3.99960938 -3.93359375 4.41796875 C-6.24690712 5.86633187 -6.24690712 5.86633187 -6.78515625 8.67578125 C-6.85605469 9.44277344 -6.92695312 10.20976563 -7 11 C-8.5 9.8125 -8.5 9.8125 -10 8 C-10.1875 5.3125 -10.1875 5.3125 -10 3 C-6.97265625 2.26757812 -6.97265625 2.26757812 -3.9453125 1.53515625 C-1.9414343 1.05153008 -1.9414343 1.05153008 0 0 Z " fill="#DBC5C7" transform="translate(47,93)"/>
<path d="M0 0 C3.63 0 7.26 0 11 0 C10.67 1.32 10.34 2.64 10 4 C6.37 4 2.74 4 -1 4 C-1 3.67 -1 3.34 -1 3 C0.98 3 2.96 3 5 3 C5 2.34 5 1.68 5 1 C3.35 1 1.7 1 0 1 C0 0.67 0 0.34 0 0 Z " fill="#D0C9DB" transform="translate(133,100)"/>
<path d="M0 0 C0.639375 0.268125 1.27875 0.53625 1.9375 0.8125 C3.60269519 1.15310811 5.26907466 1.48808396 6.9375 1.8125 C6.9375 2.1425 6.9375 2.4725 6.9375 2.8125 C6.17824219 2.93367188 5.41898438 3.05484375 4.63671875 3.1796875 C3.14591797 3.43105469 3.14591797 3.43105469 1.625 3.6875 C0.63886719 3.84992187 -0.34726563 4.01234375 -1.36328125 4.1796875 C-4.26309827 4.69335454 -4.26309827 4.69335454 -7.0625 6.8125 C-7.3925 5.8225 -7.7225 4.8325 -8.0625 3.8125 C-2.65709459 -0.24155405 -2.65709459 -0.24155405 0 0 Z " fill="#E2DBEA" transform="translate(132.0625,51.1875)"/>
<path d="M0 0 C5.94 0.99 5.94 0.99 12 2 C8.72953875 4.1803075 6.8800701 4.68959439 3 5 C0.125 4.0625 0.125 4.0625 -2 3 C-1.34 2.67 -0.68 2.34 0 2 C0 1.34 0 0.68 0 0 Z " fill="#5A4392" transform="translate(122,107)"/>
<path d="M0 0 C2 2 2 2 4 5 C4.66 4.34 5.32 3.68 6 3 C6 4.65 6 6.3 6 8 C6.66 8.33 7.32 8.66 8 9 C7.01 10.485 7.01 10.485 6 12 C5.34 11.01 4.68 10.02 4 9 C3.01 9.495 3.01 9.495 2 10 C0.39644899 6.49223216 -0.22036864 3.85645121 0 0 Z " fill="#F5F5F0" transform="translate(106,88)"/>
<path d="M0 0 C3.71746379 3.20471016 5.35628302 6.39759246 7 11 C7 12.32 7 13.64 7 15 C6.34 15 5.68 15 5 15 C4.16260219 12.8765984 3.33019717 10.7512272 2.5 8.625 C1.80390625 6.84996094 1.80390625 6.84996094 1.09375 5.0390625 C0 2 0 2 0 0 Z " fill="#F8E4E3" transform="translate(100,91)"/>
<path d="M0 0 C0.99 0.33 1.98 0.66 3 1 C2.67 1.33 2.34 1.66 2 2 C3.134375 2.4125 4.26875 2.825 5.4375 3.25 C9 5 9 5 9.9375 7.1875 C9.958125 7.785625 9.97875 8.38375 10 9 C6 7 2 5 -2 3 C-1.34 2.67 -0.68 2.34 0 2 C0 1.34 0 0.68 0 0 Z " fill="#462C83" transform="translate(141,80)"/>
<path d="M0 0 C6.93 0.495 6.93 0.495 14 1 C14 1.66 14 2.32 14 3 C9.05 3 4.1 3 -1 3 C-0.67 2.01 -0.34 1.02 0 0 Z " fill="#E21D25" transform="translate(54,106)"/>
<path d="M0 0 C0.99 0.66 1.98 1.32 3 2 C0 4 0 4 -2.69921875 3.5390625 C-3.68535156 3.23742187 -4.67148438 2.93578125 -5.6875 2.625 C-6.68136719 2.32851562 -7.67523438 2.03203125 -8.69921875 1.7265625 C-9.45847656 1.48679687 -10.21773437 1.24703125 -11 1 C-6.9840912 -1.29480503 -4.53002084 -0.98836818 0 0 Z " fill="#E2DBEB" transform="translate(141,83)"/>
<path d="M0 0 C0 3.63 0 7.26 0 11 C-0.99 11.495 -0.99 11.495 -2 12 C-3.20272819 9.59454362 -3.10071472 8.05003047 -3.0625 5.375 C-3.05347656 4.55773437 -3.04445313 3.74046875 -3.03515625 2.8984375 C-3.02355469 2.27195312 -3.01195313 1.64546875 -3 1 C-1 0 -1 0 0 0 Z " fill="#43287F" transform="translate(118,62)"/>
<path d="M0 0 C-0.33 0.99 -0.66 1.98 -1 3 C-10.41002278 4.33257403 -10.41002278 4.33257403 -15 3 C-15 2.67 -15 2.34 -15 2 C-13.06302033 1.66365624 -11.12539514 1.33102835 -9.1875 1 C-7.56908203 0.7215625 -7.56908203 0.7215625 -5.91796875 0.4375 C-3 0 -3 0 0 0 Z " fill="#F7EAE7" transform="translate(161,116)"/>
<path d="M0 0 C4.62 0.66 9.24 1.32 14 2 C14 2.33 14 2.66 14 3 C12.04235617 3.19456705 10.08384679 3.38044247 8.125 3.5625 C7.03445312 3.66691406 5.94390625 3.77132812 4.8203125 3.87890625 C2 4 2 4 0 3 C0 2.01 0 1.02 0 0 Z " fill="#472E7E" transform="translate(125,102)"/>
<path d="M0 0 C0.66 0 1.32 0 2 0 C2.33 2.31 2.66 4.62 3 7 C1.02 7.33 -0.96 7.66 -3 8 C-1.125 2.25 -1.125 2.25 0 0 Z " fill="#E8CFCD" transform="translate(82,78)"/>
<path d="M0 0 C0.66 0.33 1.32 0.66 2 1 C1.67 2.32 1.34 3.64 1 5 C1.99 5.66 2.98 6.32 4 7 C1.69 7.33 -0.62 7.66 -3 8 C-3.33 6.35 -3.66 4.7 -4 3 C-2.68 2.01 -1.36 1.02 0 0 Z " fill="#F0E8ED" transform="translate(116,103)"/>
<path d="M0 0 C0.66 0 1.32 0 2 0 C1.34 2.97 0.68 5.94 0 9 C1.32 9.33 2.64 9.66 4 10 C2.35 10 0.7 10 -1 10 C-2.1875 8.375 -2.1875 8.375 -3 6 C-1.625 2.75 -1.625 2.75 0 0 Z " fill="#F6E6E4" transform="translate(67,82)"/>
<path d="M0 0 C1.98 0.99 1.98 0.99 4 2 C4 2.66 4 3.32 4 4 C5.65 4 7.3 4 9 4 C8.67 5.32 8.34 6.64 8 8 C4.67689517 6.83242263 2.16638868 5.85051143 0 3 C0 2.01 0 1.02 0 0 Z " fill="#543C90" transform="translate(122,72)"/>
<path d="M0 0 C0.99 0 1.98 0 3 0 C3 5.61 3 11.22 3 17 C2.34 16.67 1.68 16.34 1 16 C1.01160156 15.09636719 1.02320313 14.19273437 1.03515625 13.26171875 C1.04417969 12.08222656 1.05320313 10.90273437 1.0625 9.6875 C1.07410156 8.51574219 1.08570313 7.34398437 1.09765625 6.13671875 C1.14899898 2.96940805 1.14899898 2.96940805 0 0 Z " fill="#3C2673" transform="translate(129,140)"/>
<path d="M0 0 C0 0.66 0 1.32 0 2 C-0.66 2 -1.32 2 -2 2 C-2.2475 2.5775 -2.495 3.155 -2.75 3.75 C-4.16683317 6.3002997 -5.87627537 8.01785701 -8 10 C-8.33 9.01 -8.66 8.02 -9 7 C-7.890625 5.17578125 -7.890625 5.17578125 -6.25 3.3125 C-5.71890625 2.68988281 -5.1878125 2.06726563 -4.640625 1.42578125 C-3 0 -3 0 0 0 Z " fill="#4A347B" transform="translate(169,137)"/>
<path d="M0 0 C0.66 1.32 1.32 2.64 2 4 C2.98879205 5.67334039 3.98648336 7.34151823 5 9 C2.36 9 -0.28 9 -3 9 C-2.01 6.03 -1.02 3.06 0 0 Z " fill="#F7E2DD" transform="translate(36,103)"/>
<path d="M0 0 C4.29 0 8.58 0 13 0 C12.67 0.66 12.34 1.32 12 2 C7.31090292 3.08209933 4.30902834 3.21980248 0 1 C0 0.67 0 0.34 0 0 Z " fill="#F8F4F7" transform="translate(129,107)"/>
<path d="M0 0 C2.96052484 3.36423277 3.92289822 6.69159287 5 11 C4.01 11 3.02 11 2 11 C-1.07692308 4.6 -1.07692308 4.6 -0.6875 1.5625 C-0.460625 1.046875 -0.23375 0.53125 0 0 Z " fill="#F2C8C9" transform="translate(97,81)"/>
<path d="M0 0 C0.33 0 0.66 0 1 0 C1 4.29 1 8.58 1 13 C0.34 13 -0.32 13 -1 13 C-1 12.34 -1 11.68 -1 11 C-2.32 11.33 -3.64 11.66 -5 12 C-5.33 11.34 -5.66 10.68 -6 10 C-4.35 9.34 -2.7 8.68 -1 8 C-0.67 5.36 -0.34 2.72 0 0 Z " fill="#F0EAF1" transform="translate(154,147)"/>
<path d="M0 0 C0.66 0.66 1.32 1.32 2 2 C1.69347955 4.9425963 1.32728846 7.34542308 0 10 C-0.99 10 -1.98 10 -3 10 C-2.69201674 8.51988629 -2.378482 7.04092675 -2.0625 5.5625 C-1.88847656 4.73878906 -1.71445312 3.91507813 -1.53515625 3.06640625 C-1 1 -1 1 0 0 Z " fill="#D12B37" transform="translate(47,147)"/>
<path d="M0 0 C0.66666667 2.66666667 1.33333333 5.33333333 2 8 C4.31 8 6.62 8 9 8 C9.33 7.34 9.66 6.68 10 6 C10 6.99 10 7.98 10 9 C6.04 9 2.08 9 -2 9 C-1.34 6.03 -0.68 3.06 0 0 Z " fill="#D66168" transform="translate(49,138)"/>
<path d="M0 0 C2 1 2 1 3.125 3.75 C3.91973395 6.70186896 4.17810598 8.97219837 4 12 C3.67 11.34 3.34 10.68 3 10 C2.34 10 1.68 10 1 10 C0.63720544 8.71073008 0.28503302 7.41846728 -0.0625 6.125 C-0.35833984 5.04605469 -0.35833984 5.04605469 -0.66015625 3.9453125 C-1 2 -1 2 0 0 Z " fill="#F6DFDB" transform="translate(54,134)"/>
<path d="M0 0 C0.66 0 1.32 0 2 0 C1.50769231 6.4 1.50769231 6.4 -1.0625 9.4375 C-1.701875 9.953125 -2.34125 10.46875 -3 11 C-2.44894091 7.0507432 -1.61064629 3.65079826 0 0 Z " fill="#462F7D" transform="translate(156,96)"/>
<path d="M0 0 C1.32 0 2.64 0 4 0 C3.34 2.31 2.68 4.62 2 7 C0.68 7 -0.64 7 -2 7 C-1.34 4.69 -0.68 2.38 0 0 Z " fill="#D22832" transform="translate(63,97)"/>
<path d="M0 0 C0.66 0.33 1.32 0.66 2 1 C1.67 1.66 1.34 2.32 1 3 C1.66 3 2.32 3 3 3 C3 4.98 3 6.96 3 9 C2.773125 8.38125 2.54625 7.7625 2.3125 7.125 C0.6089134 4.36681217 -0.99902431 4.05034149 -4 3 C-4.66 2.34 -5.32 1.68 -6 1 C-3.03 1.495 -3.03 1.495 0 2 C0 1.34 0 0.68 0 0 Z " fill="#F5DDDB" transform="translate(191,88)"/>
<path d="M0 0 C-2 2 -2 2 -4.8203125 2.1953125 C-5.91085938 2.17210938 -7.00140625 2.14890625 -8.125 2.125 C-9.22070312 2.10695313 -10.31640625 2.08890625 -11.4453125 2.0703125 C-12.28835937 2.04710938 -13.13140625 2.02390625 -14 2 C-9.35676153 -1.09549231 -5.35112092 -1.41647318 0 0 Z " fill="#553D90" transform="translate(144,105)"/>
<path d="M0 0 C0.66 0 1.32 0 2 0 C2.3125 3.25 2.3125 3.25 2 7 C-0.5 9.4375 -0.5 9.4375 -3 11 C-3 9.68 -3 8.36 -3 7 C-2.34 7 -1.68 7 -1 7 C-0.67 4.69 -0.34 2.38 0 0 Z " fill="#F1EDF3" transform="translate(147,92)"/>
<path d="M0 0 C0.99 0.33 1.98 0.66 3 1 C2.01 1.66 1.02 2.32 0 3 C0 2.01 0 1.02 0 0 Z M-1.4375 3.25 C1 4 1 4 3 6 C-0.93670488 7.31223496 -3.12488144 6.24296256 -7 5 C-4 3 -4 3 -1.4375 3.25 Z " fill="#EBE6F0" transform="translate(184,140)"/>
<path d="M0 0 C0.33 0.66 0.66 1.32 1 2 C-1.53341263 5.09639322 -4.12990885 6.13120403 -8 7 C-9.32 6.34 -10.64 5.68 -12 5 C-8.04 3.35 -4.08 1.7 0 0 Z " fill="#D4303D" transform="translate(175,104)"/>
<path d="M0 0 C0.66 1.32 1.32 2.64 2 4 C-0.3125 5.5625 -0.3125 5.5625 -3 7 C-3.99 6.67 -4.98 6.34 -6 6 C-6 5.34 -6 4.68 -6 4 C-4.03852126 2.61061923 -2.03833424 1.2739589 0 0 Z " fill="#543C8C" transform="translate(152,104)"/>
<path d="M0 0 C2.475 0.99 2.475 0.99 5 2 C5 2.99 5 3.98 5 5 C2.36 5 -0.28 5 -3 5 C-2.67 4.01 -2.34 3.02 -2 2 C-1.34 2 -0.68 2 0 2 C0 1.34 0 0.68 0 0 Z " fill="#E91D23" transform="translate(176,104)"/>
<path d="M0 0 C0.99 0.33 1.98 0.66 3 1 C3.33 2.65 3.66 4.3 4 6 C2.35 6 0.7 6 -1 6 C-1.33 5.01 -1.66 4.02 -2 3 C-1.34 2.01 -0.68 1.02 0 0 Z " fill="#4A327F" transform="translate(118,103)"/>
<path d="M0 0 C0.99 0 1.98 0 3 0 C4.125 3.3125 4.125 3.3125 5 7 C4.01 8.485 4.01 8.485 3 10 C0 3.375 0 3.375 0 0 Z " fill="#F8DCDD" transform="translate(94,93)"/>
<path d="M0 0 C3 1 3 1 3.94921875 2.84765625 C4.19285156 3.57855469 4.43648438 4.30945313 4.6875 5.0625 C4.93886719 5.79597656 5.19023438 6.52945313 5.44921875 7.28515625 C5.63097656 7.85105469 5.81273438 8.41695312 6 9 C2.15625 8.2265625 2.15625 8.2265625 0.75 6.1875 C0 4 0 4 0 0 Z " fill="#EFCDCC" transform="translate(90,83)"/>
<path d="M0 0 C1.5 1.1875 1.5 1.1875 3 3 C3.1875 5.6875 3.1875 5.6875 3 8 C1.68 8 0.36 8 -1 8 C-1.125 2.25 -1.125 2.25 0 0 Z " fill="#DB2934" transform="translate(82,69)"/>
<path d="M0 0 C2.64 0 5.28 0 8 0 C8.33 0.99 8.66 1.98 9 3 C5.21812119 4.83691257 3.05431692 5.15837626 -1 4 C-1 3.67 -1 3.34 -1 3 C0.98 3 2.96 3 5 3 C5 2.34 5 1.68 5 1 C3.35 1 1.7 1 0 1 C0 0.67 0 0.34 0 0 Z " fill="#D5CDE4" transform="translate(110,154)"/>
<path d="M0 0 C1.48117801 0.28127421 2.95993249 0.57533732 4.4375 0.875 C5.67306641 1.11863281 5.67306641 1.11863281 6.93359375 1.3671875 C7.61550781 1.57601562 8.29742187 1.78484375 9 2 C9.33 2.66 9.66 3.32 10 4 C6.7 4 3.4 4 0 4 C0 2.68 0 1.36 0 0 Z " fill="#47307E" transform="translate(88,153)"/>
<path d="M0 0 C0.99 0.33 1.98 0.66 3 1 C2.01 2.485 2.01 2.485 1 4 C0.29187186 6.32108669 -0.38024152 8.65377147 -1 11 C-1.33 11 -1.66 11 -2 11 C-2.25 3.375 -2.25 3.375 0 0 Z " fill="#3E277B" transform="translate(139,139)"/>
<path d="M0 0 C1.32 0 2.64 0 4 0 C4.33 1.32 4.66 2.64 5 4 C0.99799622 5.60080151 -2.04556236 4.29279692 -6 3 C-6 2.67 -6 2.34 -6 2 C-4.02 2 -2.04 2 0 2 C0 1.34 0 0.68 0 0 Z " fill="#E7E2ED" transform="translate(115,137)"/>
<path d="M0 0 C-1 2 -1 2 -3 2.875 C-5.20005805 3.8234856 -5.20005805 3.8234856 -5.75 6.125 C-5.8325 6.74375 -5.915 7.3625 -6 8 C-6.66 8 -7.32 8 -8 8 C-8.36075949 3.55063291 -8.36075949 3.55063291 -6.8125 1.1875 C-4.44017475 -0.36678206 -2.77958655 -0.22537188 0 0 Z " fill="#432E76" transform="translate(106,128)"/>
<path d="M0 0 C2.33944736 0.28730055 4.6739143 0.61936779 7 1 C7 1.33 7 1.66 7 2 C5.35 2 3.7 2 2 2 C1.87625 2.763125 1.7525 3.52625 1.625 4.3125 C1 7 1 7 -1 10 C-1.02689216 8.52093108 -1.04634621 7.04172517 -1.0625 5.5625 C-1.07410156 4.73878906 -1.08570313 3.91507813 -1.09765625 3.06640625 C-1 1 -1 1 0 0 Z " fill="#F3DCD7" transform="translate(50,128)"/>
<path d="M0 0 C3.71599191 -0.20086443 4.77208445 -0.1519437 8 2 C8 2.66 8 3.32 8 4 C4.7 3.67 1.4 3.34 -2 3 C-1.34 2.67 -0.68 2.34 0 2 C0 1.34 0 0.68 0 0 Z " fill="#D7414A" transform="translate(64,116)"/>
<path d="M0 0 C0.99 0.66 1.98 1.32 3 2 C3 2.66 3 3.32 3 4 C0.77109005 5.11445498 -0.53055106 5.16480286 -3 5.1875 C-4.051875 5.20876953 -4.051875 5.20876953 -5.125 5.23046875 C-7 5 -7 5 -9 3 C-6.03 3 -3.06 3 0 3 C0 2.01 0 1.02 0 0 Z " fill="#E31C2C" transform="translate(109,104)"/>
<path d="M0 0 C3.3 1.65 6.6 3.3 10 5 C6.16380575 5.95904856 4.67568464 5.91892116 1 5 C1.33 4.01 1.66 3.02 2 2 C1.34 2 0.68 2 0 2 C0 1.34 0 0.68 0 0 Z " fill="#D62430" transform="translate(182,88)"/>
<path d="M0 0 C0.79148438 0.28359375 1.58296875 0.5671875 2.3984375 0.859375 C3.19507813 1.13265625 3.99171875 1.4059375 4.8125 1.6875 C6.7734375 2.609375 6.7734375 2.609375 7.7734375 4.609375 C3.28818102 3.952996 -0.89570279 2.90863291 -5.2265625 1.609375 C-2.2265625 -0.390625 -2.2265625 -0.390625 0 0 Z " fill="#D9C4DA" transform="translate(142.2265625,77.390625)"/>
<path d="M0 0 C2 3 2 3 2 7 C3.32 7 4.64 7 6 7 C6 7.66 6 8.32 6 9 C4.02 9 2.04 9 0 9 C0 6.03 0 3.06 0 0 Z " fill="#F6E7E8" transform="translate(60,151)"/>
<path d="M0 0 C2.04119788 1.61594832 4.04072937 3.2856382 6 5 C6 5.66 6 6.32 6 7 C2.73045798 6.43628586 1.17424117 5.50037734 -1 3 C-0.67 2.01 -0.34 1.02 0 0 Z " fill="#48377A" transform="translate(164,150)"/>
<path d="M0 0 C0.66 0 1.32 0 2 0 C2.125 2.875 2.125 2.875 2 6 C1.34 6.66 0.68 7.32 0 8 C-0.99 6.68 -1.98 5.36 -3 4 C-1.625 2 -1.625 2 0 0 Z " fill="#F8ECEC" transform="translate(179,93)"/>
<path d="M0 0 C0.99 0.66 1.98 1.32 3 2 C2.01 2.33 1.02 2.66 0 3 C0.99 3.66 1.98 4.32 3 5 C1.68 6.32 0.36 7.64 -1 9 C-1.33 6.69 -1.66 4.38 -2 2 C-1.34 2 -0.68 2 0 2 C0 1.34 0 0.68 0 0 Z " fill="#E51C22" transform="translate(187,95)"/>
<path d="M0 0 C0.99 0 1.98 0 3 0 C3.33 0.99 3.66 1.98 4 3 C1.36 3.99 -1.28 4.98 -4 6 C-4.33 5.01 -4.66 4.02 -5 3 C-3.35 2.67 -1.7 2.34 0 2 C0 1.34 0 0.68 0 0 Z " fill="#F6F1F1" transform="translate(48,89)"/>
<path d="M0 0 C2.97 0 5.94 0 9 0 C9 0.99 9 1.98 9 3 C5.18510326 4.46726798 2.70988378 3.43336419 -1 2 C-0.67 1.34 -0.34 0.68 0 0 Z " fill="#7C2E71" transform="translate(143,81)"/>
<path d="M0 0 C2.475 0.99 2.475 0.99 5 2 C5 2.99 5 3.98 5 5 C5.66 5.33 6.32 5.66 7 6 C6.01 6.33 5.02 6.66 4 7 C2 5.1875 2 5.1875 0 3 C0 2.01 0 1.02 0 0 Z " fill="#F0EDF1" transform="translate(151,75)"/>
<path d="M0 0 C0.66 0.33 1.32 0.66 2 1 C1.25 5.75 1.25 5.75 -1 8 C-1.66 7.67 -2.32 7.34 -3 7 C-1.125 1.125 -1.125 1.125 0 0 Z " fill="#F3D9D6" transform="translate(82,48)"/>
<path d="M0 0 C1.65 0 3.3 0 5 0 C5 1.98 5 3.96 5 6 C4.01 6 3.02 6 2 6 C1.34 4.02 0.68 2.04 0 0 Z " fill="#FCF9F8" transform="translate(124,147)"/>
<path d="M0 0 C2.97 0 5.94 0 9 0 C5.99382731 3.00617269 3.17618402 2.59585316 -1 3 C-0.67 2.01 -0.34 1.02 0 0 Z " fill="#F7F1F0" transform="translate(53,111)"/>
<path d="M0 0 C0.99 0.33 1.98 0.66 3 1 C2.67 2.98 2.34 4.96 2 7 C0.68 6.67 -0.64 6.34 -2 6 C-1.34 4.02 -0.68 2.04 0 0 Z " fill="#D63A4A" transform="translate(55,100)"/>
<path d="M0 0 C0.66 0.66 1.32 1.32 2 2 C1.625 5.125 1.625 5.125 1 8 C1.66 8.33 2.32 8.66 3 9 C2.01 9 1.02 9 0 9 C-1.125 6.75 -1.125 6.75 -2 4 C-1.125 1.6875 -1.125 1.6875 0 0 Z " fill="#F4D7D9" transform="translate(75,78)"/>
<path d="M0 0 C2.64 0.66 5.28 1.32 8 2 C8 2.66 8 3.32 8 4 C2.25 4.125 2.25 4.125 0 3 C0 2.01 0 1.02 0 0 Z " fill="#F5EFF6" transform="translate(126,79)"/>
<path d="M0 0 C0.66 0 1.32 0 2 0 C1.67 2.64 1.34 5.28 1 8 C0.01 7.67 -0.98 7.34 -2 7 C-1.34 4.69 -0.68 2.38 0 0 Z " fill="#DD2530" transform="translate(71,64)"/>
<path d="M0 0 C2.97 0 5.94 0 9 0 C9 0.66 9 1.32 9 2 C6.69 2.33 4.38 2.66 2 3 C2 2.34 2 1.68 2 1 C1.34 0.67 0.68 0.34 0 0 Z " fill="#442584" transform="translate(132,60)"/>
<path d="M0 0 C0.66 0 1.32 0 2 0 C1.67 2.31 1.34 4.62 1 7 C0.01 7.33 -0.98 7.66 -2 8 C-2.125 5.125 -2.125 5.125 -2 2 C-1.34 1.34 -0.68 0.68 0 0 Z " fill="#DC2431" transform="translate(78,49)"/>
<path d="M0 0 C-0.33 1.32 -0.66 2.64 -1 4 C-3.31 4 -5.62 4 -8 4 C-8 3.34 -8 2.68 -8 2 C-2.25 0 -2.25 0 0 0 Z " fill="#452F81" transform="translate(151,153)"/>
<path d="M0 0 C0.33 0.66 0.66 1.32 1 2 C-1.64 2.33 -4.28 2.66 -7 3 C-7 2.01 -7 1.02 -7 0 C-4.30234372 -1.34882814 -2.84835666 -0.80338265 0 0 Z " fill="#F3F3F3" transform="translate(108,156)"/>
<path d="M0 0 C1.32 0.33 2.64 0.66 4 1 C3.125 4.875 3.125 4.875 2 6 C0.33382885 6.04063832 -1.33388095 6.042721 -3 6 C-1.68 5.67 -0.36 5.34 1 5 C0.67 3.35 0.34 1.7 0 0 Z " fill="#E8E2F1" transform="translate(180,149)"/>
<path d="M0 0 C2.0625 0.4375 2.0625 0.4375 4 1 C4.625 2.875 4.625 2.875 5 5 C4.34 5.66 3.68 6.32 3 7 C2.67 6.01 2.34 5.02 2 4 C0.50014391 2.33289654 0.50014391 2.33289654 -1 1 C-0.67 0.67 -0.34 0.34 0 0 Z " fill="#422A7E" transform="translate(181,146)"/>
<path d="M0 0 C0.74955438 2.9982175 1.41070989 5.96936513 2 9 C0.68 9 -0.64 9 -2 9 C-1.34 6.03 -0.68 3.06 0 0 Z " fill="#F9E6E7" transform="translate(70,105)"/>
<path d="M0 0 C2.97 0.33 5.94 0.66 9 1 C9 1.66 9 2.32 9 3 C6.36 3 3.72 3 1 3 C0.67 2.01 0.34 1.02 0 0 Z " fill="#FBF9F9" transform="translate(129,100)"/>
<path d="M0 0 C0.99 0.33 1.98 0.66 3 1 C3 1.66 3 2.32 3 3 C3.66 3.33 4.32 3.66 5 4 C1.06329512 5.31223496 -1.12488144 4.24296256 -5 3 C-5 2.67 -5 2.34 -5 2 C-3.35 2 -1.7 2 0 2 C0 1.34 0 0.68 0 0 Z " fill="#58418C" transform="translate(127,95)"/>
<path d="M0 0 C0.33 0 0.66 0 1 0 C1 2.97 1 5.94 1 9 C0.01 8.67 -0.98 8.34 -2 8 C-2.20086443 4.28400809 -2.1519437 3.22791555 0 0 Z " fill="#5E4589" transform="translate(158,88)"/>
<path d="M0 0 C2 2 2 2 2.1953125 4.1640625 C2.17210937 4.97617188 2.14890625 5.78828125 2.125 6.625 C2.10695312 7.44226563 2.08890625 8.25953125 2.0703125 9.1015625 C2.03550781 10.04128906 2.03550781 10.04128906 2 11 C0.00902154 8.01353231 -0.94124926 5.40312738 -2 2 C-1.34 2 -0.68 2 0 2 C0 1.34 0 0.68 0 0 Z " fill="#5C438B" transform="translate(151,87)"/>
<path d="M0 0 C0.66 0.33 1.32 0.66 2 1 C2 3.97 2 6.94 2 10 C-0.46278801 7.53721199 -0.99771255 5.29323018 -2 2 C-1.34 2 -0.68 2 0 2 C0 1.34 0 0.68 0 0 Z " fill="#F4E1DE" transform="translate(98,68)"/>
<path d="M0 0 C1.32 0.33 2.64 0.66 4 1 C4 2.32 4 3.64 4 5 C1.03 4.505 1.03 4.505 -2 4 C-1.34 2.68 -0.68 1.36 0 0 Z " fill="#563D89" transform="translate(148,62)"/>
<path d="M0 0 C0.66 0 1.32 0 2 0 C1.34 2.31 0.68 4.62 0 7 C0.99 7.33 1.98 7.66 3 8 C1.02 8.99 1.02 8.99 -1 10 C-2.27351308 7.45297384 -1.80191925 6.5717055 -1.0625 3.875 C-0.86785156 3.15054688 -0.67320313 2.42609375 -0.47265625 1.6796875 C-0.31667969 1.12539062 -0.16070312 0.57109375 0 0 Z " fill="#F8D9DA" transform="translate(44,150)"/>
<path d="M0 0 C1.32 0 2.64 0 4 0 C4.66 1.65 5.32 3.3 6 5 C4.68 5 3.36 5 2 5 C1.34 4.34 0.68 3.68 0 3 C0 2.01 0 1.02 0 0 Z " fill="#5C488F" transform="translate(159,145)"/>
<path d="M0 0 C2.64 0.33 5.28 0.66 8 1 C8 1.66 8 2.32 8 3 C5.03 3 2.06 3 -1 3 C-0.67 2.01 -0.34 1.02 0 0 Z " fill="#E51821" transform="translate(49,146)"/>
<path d="M0 0 C1.98 0 3.96 0 6 0 C6 0.99 6 1.98 6 3 C3.69 3 1.38 3 -1 3 C-0.67 2.01 -0.34 1.02 0 0 Z " fill="#5B4A8F" transform="translate(109,136)"/>
<path d="M0 0 C0.33 0 0.66 0 1 0 C1.66 2.64 2.32 5.28 3 8 C2.01 8.33 1.02 8.66 0 9 C-1.36623674 6.26752652 -1.128426 4.01801098 -1 1 C-0.67 0.67 -0.34 0.34 0 0 Z " fill="#C73849" transform="translate(38,100)"/>
<path d="M0 0 C1.9375 0.5625 1.9375 0.5625 4 2 C4.75 5.625 4.75 5.625 5 9 C4.34 9 3.68 9 3 9 C2 6 1 3 0 0 Z " fill="#D3313B" transform="translate(178,89)"/>
<path d="M0 0 C0.99 0.33 1.98 0.66 3 1 C2.34 2.98 1.68 4.96 1 7 C0.01 6.67 -0.98 6.34 -2 6 C-1.34 4.02 -0.68 2.04 0 0 Z " fill="#F6D2D2" transform="translate(69,76)"/>
<path d="M0 0 C0.66 0 1.32 0 2 0 C2.33 1.65 2.66 3.3 3 5 C1.68 5.33 0.36 5.66 -1 6 C-0.67 4.02 -0.34 2.04 0 0 Z " fill="#F3E0E1" transform="translate(82,62)"/>
<path d="M0 0 C0 0.66 0 1.32 0 2 C-2.91482778 2.80967438 -4.46113217 3.21845993 -7.3125 2.0625 C-7.869375 1.711875 -8.42625 1.36125 -9 1 C-5.57367167 -0.61798838 -3.61944899 -1.34053666 0 0 Z " fill="#553F88" transform="translate(149,56)"/>
<path d="M0 0 C0.66 0.66 1.32 1.32 2 2 C1.67 2.66 1.34 3.32 1 4 C0.34 4 -0.32 4 -1 4 C-1.33 5.65 -1.66 7.3 -2 9 C-2.97110486 5.97878489 -3.13617383 3.99536737 -2 1 C-1.34 0.67 -0.68 0.34 0 0 Z " fill="#F2F6F4" transform="translate(45,146)"/>
<path d="M0 0 C2.12508244 3.18762365 2.5020163 5.26512223 3 9 C2.01 9.33 1.02 9.66 0 10 C-1.2380014 6.42355152 -0.74926071 3.66305234 0 0 Z " fill="#D33D49" transform="translate(57,131)"/>
<path d="M0 0 C1.98 0.495 1.98 0.495 4 1 C4 2.98 4 4.96 4 7 C3.34 6.67 2.68 6.34 2 6 C2.33 5.01 2.66 4.02 3 3 C1.68 3 0.36 3 -1 3 C-0.67 2.01 -0.34 1.02 0 0 Z " fill="#D8CDE8" transform="translate(102,130)"/>
<path d="M0 0 C1.2077558 3.62326739 0.54311128 4.64146369 -1 8 C-1.66 8 -2.32 8 -3 8 C-2.25 2.25 -2.25 2.25 0 0 Z " fill="#F9EFED" transform="translate(77,61)"/>
<path d="M0 0 C4.875 1.75 4.875 1.75 6 4 C4.02 4.99 4.02 4.99 2 6 C2 5.01 2 4.02 2 3 C1.34 3 0.68 3 0 3 C0 2.01 0 1.02 0 0 Z " fill="#EEEDEB" transform="translate(66,154)"/>
<path d="M0 0 C0.66 0 1.32 0 2 0 C2 1.32 2 2.64 2 4 C-0.70879335 5.35439668 -3.00933268 5.06501451 -6 5 C-6 4.67 -6 4.34 -6 4 C-4.35 4 -2.7 4 -1 4 C-0.67 2.68 -0.34 1.36 0 0 Z " fill="#DFD4E7" transform="translate(97,150)"/>
<path d="M0 0 C0.99 0.33 1.98 0.66 3 1 C2.67 2.65 2.34 4.3 2 6 C1.01 5.67 0.02 5.34 -1 5 C-0.67 3.35 -0.34 1.7 0 0 Z " fill="#F7F5F7" transform="translate(121,148)"/>
<path d="M0 0 C0.33 0 0.66 0 1 0 C1 2.64 1 5.28 1 8 C-0.32 7.67 -1.64 7.34 -3 7 C-2.67 6.01 -2.34 5.02 -2 4 C-1.34 4 -0.68 4 0 4 C0 2.68 0 1.36 0 0 Z " fill="#685497" transform="translate(100,132)"/>
<path d="M0 0 C1.32 0 2.64 0 4 0 C3.6875 1.9375 3.6875 1.9375 3 4 C2.01 4.33 1.02 4.66 0 5 C0 3.35 0 1.7 0 0 Z " fill="#FAF9FA" transform="translate(101,133)"/>
<path d="M0 0 C1.65 0 3.3 0 5 0 C5 2.31 5 4.62 5 7 C4.67 7 4.34 7 4 7 C4 5.35 4 3.7 4 2 C2.68 2.33 1.36 2.66 0 3 C0 2.01 0 1.02 0 0 Z " fill="#DB1E2C" transform="translate(52,130)"/>
<path d="M0 0 C2.64 0.33 5.28 0.66 8 1 C4.5980513 3.09350689 1.94727588 3.17942163 -2 3 C-1.34 2.01 -0.68 1.02 0 0 Z " fill="#F9ECED" transform="translate(151,109)"/>
<path d="M0 0 C1.61949011 2.57213134 2.04408751 3.67669159 1.625 6.75 C1.41875 7.4925 1.2125 8.235 1 9 C0.01 8.34 -0.98 7.68 -2 7 C-1.34 4.69 -0.68 2.38 0 0 Z " fill="#CE383F" transform="translate(75,69)"/>
<path d="M0 0 C0.144375 0.598125 0.28875 1.19625 0.4375 1.8125 C0.8872439 3.56150404 1.42892341 5.28677023 2 7 C1.34 7.66 0.68 8.32 0 9 C0 8.34 0 7.68 0 7 C-0.66 7 -1.32 7 -2 7 C-1.42415568 4.61435923 -0.77772405 2.33317216 0 0 Z " fill="#D23B43" transform="translate(69,67)"/>
<path d="M0 0 C1.2065625 0.0309375 1.2065625 0.0309375 2.4375 0.0625 C0.30969421 2.40308637 -1.67812221 3.76950306 -4.5625 5.0625 C-3.43829114 0.08386076 -3.43829114 0.08386076 0 0 Z " fill="#F1EDF5" transform="translate(131.5625,57.9375)"/>
<path d="M0 0 C0.99 0 1.98 0 3 0 C1.92598892 2.91517292 1.22189824 4.77810176 -1 7 C-1.625 5.1875 -1.625 5.1875 -2 3 C-1.34 2.01 -0.68 1.02 0 0 Z " fill="#EAE4F0" transform="translate(122,56)"/>
<path d="M0 0 C0.33 0.66 0.66 1.32 1 2 C3.02463255 2.65213292 3.02463255 2.65213292 5 3 C5.33 4.32 5.66 5.64 6 7 C5.01 7 4.02 7 3 7 C2.67 6.34 2.34 5.68 2 5 C1.01 4.67 0.02 4.34 -1 4 C-0.67 2.68 -0.34 1.36 0 0 Z " fill="#ECE7F0" transform="translate(154,48)"/>
</svg>
